<?xml version="1.0" encoding="utf-8"?>
<!-- Generator: Adobe Illustrator 25.1.0, SVG Export Plug-In . SVG Version: 6.00 Build 0)  -->
<svg version="1.1" id="Calque_2_1_" xmlns="http://www.w3.org/2000/svg" xmlns:xlink="http://www.w3.org/1999/xlink" x="0px"
	 y="0px" viewBox="0 0 1500 1500" style="enable-background:new 0 0 1500 1500;" xml:space="preserve">
<style type="text/css">
	.st0{fill:#444444;}
	.st1{fill:#FFFFFF;}
	.st2{fill:#FFFFFF;stroke:#444444;stroke-width:30;stroke-miterlimit:10;}
</style>
<g>
	<ellipse class="st0" cx="877.1" cy="746.4" rx="612.2" ry="612.2"/>
	<path class="st1" d="M1268.6,1027.2l4.5,0.8l0,0l-4.3-1.3l0.3-2.8V874.8h4.5l0,0h-4.5c0-11.4-3.7-22.2-10.6-31.3l-1.1-1.3
		L1085,663.9v-116h4.5c12.6,0,24.3-8.1,29.1-20.1c4.7-11.8,1.8-25.1-7.5-33.9l-0.4-0.3L932.3,323.5c-11.9-11.3-31.3-11.3-43.2,0
		L710.3,494c-9,8.6-11.7,21.9-6.9,33.9c4.9,12.2,16.1,20.1,28.5,20.1h4.5v4.5v182.8h-5.1c-35.1,0-67.9,16-89.8,43.9L515.2,939.7
		c-4.7,6-12,9.6-19.4,9.6h-13.3c-24.2,0.6-43.4,20.3-43.4,44.8c0,24.8,19.2,44.7,43.6,45.4h13.1c35.5,0,68.4-16,90.4-43.9L712.6,835
		c4.9-6.2,11.6-9.6,18.9-9.6h5.1v198.8c0,8.4,6.9,15.3,15.3,15.3h59.6c8.4,0,15.3-6.9,15.3-15.3v-11.4h168v11.4
		c0,8.4,6.9,15.3,15.3,15.3h59.6c8.4,0,15.3-6.9,15.3-15.3v-75.9l69.4,71.9c9.8,10.2,23,15.8,37.2,15.8h65.7c0.4,0,0.8,0,1.2-0.1
		l2.7-0.6l2.3,4l-1.7-4.2l1.5-0.8l3,3.5l0,0l-2.5-3.8l2.2-1.9l3.9,2.4l0,0l0,0l-3.5-2.9l0.4-0.5l3.8,2.5l0,0l-3.4-3l1.3-2.5l4.4,1.3
		l0,0l-4.2-1.8L1268.6,1027.2z M736.5,794.9h-5.1c-16.5,0-32,7.6-42.6,20.9l-0.4,0.6L562.1,976.7c-15.9,20.2-40.7,32.2-66.3,32.2
		h-12.3c-7.9-0.3-13.8-6.6-13.8-14.8c0-8,5.7-13.9,13.7-14.2h12.4c16.7,0,33-8,43.5-21.3L665.6,798c16.1-20.5,40.1-32.2,65.8-32.2
		h5.1V794.9z M1133.2,747.7l47.2,48.8v131.2l-47.2-48.9V747.7z M1113.1,727v131l-28.2-29.2v-131L1113.1,727z M796.1,1008.9h-29v-461
		h29V1008.9z M994.7,989.3h-168v-39.9h168V989.3z M994.7,925.8h-168V886h168V925.8z M994.7,862.4h-168V822h168V862.4z M994.7,798.4
		h-168v-87.8c0-46.5,37.8-84.3,84.3-84.3c46.2,0,83.7,37.8,83.7,84.3V798.4z M994.7,631.6l-7.6-6.8c-20.9-18.8-47.9-29.1-76.2-29.1
		s-55.6,10.5-76.7,29.5l-7.6,6.8v-84h168L994.7,631.6L994.7,631.6z M1054.3,1008.9h-29v-461h29V1008.9z M730.2,517.3l180.5-172.2
		l180.5,172.2H730.2z M1191.5,1012.4c-7.7,0-14.9-3-20.2-8.5l-86.4-89.5v-51.6l144.5,149.6H1191.5z M1245.4,995l-44.9-46.5V817.3
		l39.6,41c3.5,4.8,5.4,10.5,5.4,16.4L1245.4,995L1245.4,995z"/>
</g>
<circle class="st2" cx="298" cy="743.4" r="219.3"/>
</svg>
