<?xml version="1.0" encoding="utf-8"?>
<!-- Generator: Adobe Illustrator 25.1.0, SVG Export Plug-In . SVG Version: 6.00 Build 0)  -->
<svg version="1.1" id="Layer_3" xmlns="http://www.w3.org/2000/svg" xmlns:xlink="http://www.w3.org/1999/xlink" x="0px" y="0px"
	 viewBox="0 0 1500 1500" style="enable-background:new 0 0 1500 1500;" xml:space="preserve">
<style type="text/css">
	.st0{fill:#444444;}
	.st1{fill:#FFFFFF;}
	.st2{fill:#FFFFFF;stroke:#444444;stroke-width:30;stroke-miterlimit:10;}
</style>
<g>
	<circle class="st0" cx="877.1" cy="746.6" r="612.2"/>
	<path class="st1" d="M1202.6,713.2c4.4-6.3,4.4-14.9,0-21.2l-49.4-71.9c-3.5-5.1-9.3-8.1-15.4-8.1h-206V464.3c0-4-1.2-7.8-3.6-11
		l-36-49.4c-3.5-4.8-9.2-7.7-15.2-7.7s-11.6,2.9-15.2,7.7l-36,49.4c-2.3,3.2-3.6,7-3.6,11v3.7h-206c-6.2,0-11.9,3-15.4,8.1
		L551.4,548c-4.4,6.4-4.4,14.9,0,21.2l49.4,71.9c3.5,5.1,9.3,8.1,15.4,8.1h206v385H701v37.5h352.1v-37.5H931.8v-241h206
		c6.2,0,11.9-3,15.4-8.1L1202.6,713.2z M822.4,611.9H626.2l-36.6-53.2l36.6-53.2h196.1L822.4,611.9L822.4,611.9z M894.3,1034.4
		h-34.4v-564l17.2-23.7l17.2,23.7V1034.4z M1127.9,755.7H931.8V649.4h196.1l36.6,53.2L1127.9,755.7z"/>
</g>
<circle class="st2" cx="298" cy="743.4" r="219.3"/>
</svg>
