<?xml version="1.0" encoding="utf-8"?>
<!-- Generator: Adobe Illustrator 25.1.0, SVG Export Plug-In . SVG Version: 6.00 Build 0)  -->
<svg version="1.1" id="Calque_4" xmlns="http://www.w3.org/2000/svg" xmlns:xlink="http://www.w3.org/1999/xlink" x="0px" y="0px"
	 viewBox="0 0 1500 1500" style="enable-background:new 0 0 1500 1500;" xml:space="preserve">
<style type="text/css">
	.st0{fill:#444444;}
	.st1{fill:#FFFFFF;}
	.st2{fill:#FFFFFF;stroke:#444444;stroke-width:30;stroke-miterlimit:10;}
</style>
<g>
	<circle class="st0" cx="877.1" cy="746.6" r="612.2"/>
	<path class="st1" d="M1194.7,1060.9c-1.6-33.4-4.7-95.6-10.9-118.9c-12.4-46.4-80.7-69.4-135.6-87.9c-6.9-2.3-13.5-4.5-19.6-6.7
		c-8.9-3.1-16.9-8-23.6-14.2c5.3-6.3,9.9-13.6,13.5-21.8c8.6-19.8,9.5-40.9,2.4-58c-0.1-0.2-0.2-0.4-0.3-0.6
		c27.1-1.6,56.1-14.5,66.8-66.2c5.4-26,2.9-45.6-7.6-59.9c-0.4-0.6-0.9-1.1-1.3-1.6c1.8-12.2-1.7-24-10.3-33.9
		c-4.4-5.1-10.2-9.8-17.2-14h3c0-119.2-72-166.4-125.4-171c-5-13.8-20-23.3-37.2-23.3l0,0H863l0,0c-17.2,0-32.2,9.5-37.2,23.3
		c-53.4,4.6-125.4,51.8-125.4,171h3.1c-6.8,4-12.3,8.5-16.7,13.3c-8.6,9.7-12.4,21.2-11,33.2l1.4-0.2c-0.9,1-1.7,2-2.5,3.1
		c-10.5,14.3-13,33.9-7.6,59.9c10.8,52.2,40.3,64.9,67.6,66.2c-0.1,0.2-0.2,0.4-0.3,0.6c-7,17.1-6.2,38.2,2.4,58
		c3.5,8,7.9,15.1,13,21.3c-6.8,6.4-15,11.4-24.1,14.7c-6.1,2.1-12.7,4.4-19.6,6.7c-54.9,18.5-123.2,41.4-135.6,87.9
		c-6.2,23.3-9.3,85.5-10.9,118.9c-0.2,4.4-0.4,8.2-0.6,11.1l29.3,1.6c0.2-3,0.3-6.8,0.6-11.3c1.3-27.7,4.5-92.5,9.9-112.8
		c5.5-20.5,35.6-37,67.8-50.1c3.7,19.3,9.9,54.5,11.1,80.5c1.7,38.1,0,91.8,0,92.3l29.4,1c0.1-2.2,1.8-55.3,0-94.6
		c-1.4-30.6-8.8-71.2-12.5-89.6c7.3-2.6,14.4-4.9,20.9-7.1c7.1-2.4,13.8-4.6,20-6.8c1.3-0.4,2.5-1,3.8-1.5c7,19.7,18.6,56.7,22,94.6
		l1.2,13.4H992l1.2-13.4c3.4-37.9,15-74.9,22-94.6c1.2,0.5,2.4,1,3.6,1.4c6.2,2.2,12.9,4.5,20,6.8c6.6,2.2,13.7,4.6,21.1,7.2
		c-3.7,18.5-11.1,59-12.5,89.6c-1.8,39.3-0.1,92.4,0,94.6l29.4-1c0-0.5-1.7-54.2,0-92.3c1.2-26,7.4-61.2,11.1-80.5
		c32.2,13,62.2,29.5,67.7,50c5.4,20.3,8.6,85.1,9.9,112.8c0.2,4.5,0.4,8.3,0.6,11.3l29.3-1.6
		C1195.1,1069.2,1194.9,1065.4,1194.7,1060.9z M917.3,770.1c-7.8,18.1-9.2,37.4-4,53.6c-10.9,2.3-24,3.6-36.7,3.6
		c-14.3,0-25.3-0.9-34.8-2.8c5.5-16.4,4.2-35.9-3.8-54.3c-3.6-8.3-8.2-15.6-13.5-21.9l35.4-49.4c1.5-0.9,3-1.8,4.4-2.7
		c4.6-3,6.6-4.3,13.2-4.4c6.5,0.1,8.6,1.5,13.2,4.4c1.6,1.1,3.3,2.1,5.1,3.1l35.1,49.1C925.4,754.5,920.8,761.9,917.3,770.1z
		 M728,615.1l-1.3-12.2c-3.6,0.4-7.4,0.9-11.3,1.6c15.1-10,55.8-26.2,161.7-26.2c105.8,0,146.5,16.1,161.7,26.2
		c-3.9-0.7-7.7-1.2-11.3-1.6l-1.3,12.2l-18.5,0.8c0.5,10.3,0.3,20.7-0.6,31.2c0-3.2,0-6.1-0.1-8.7c0-1.7-0.1-3.2-0.1-4.6
		c0-16.9-13.5-28.2-40.3-33.4c-19.1-3.7-46.7-5.4-89.4-5.4c-42.8,0-70.3,1.7-89.4,5.4c-26.7,5.2-40.3,16.4-40.3,33.4
		c0,1.4,0,3-0.1,4.6c-0.1,4.7-0.2,10.3,0.2,16.5c-1.4-13-1.9-26-1.3-38.9L728,615.1z M877.4,662.3c-0.4,0-0.8,0-1.2,0l0,0
		c-14.6,0.5-21.9,5.2-27.9,9.1c-6.5,4.2-13.2,8.5-39.1,8.5c-11.8,0-20.2-2.5-25.1-7.5c-7.7-7.8-7.3-22.7-7.1-33.5
		c0-1.5,0.1-3,0.1-4.3c4.4-4.1,23.7-10.3,100.3-10.3s95.9,6.2,100.3,10.3c0,1.3,0,2.8,0.1,4.3c0.2,10.8,0.6,25.7-7.1,33.5
		c-4.8,4.9-13.3,7.5-25.1,7.5c-25.9,0-32.6-4.3-39.1-8.5c-6-3.9-13.4-8.7-27.9-9.1l0,0C878.2,662.3,877.8,662.3,877.4,662.3z
		 M801.5,729.8c-11.7-5.9-24.4-7.7-36.3-4.5c-7.6-20-12.9-40-16-59.9c1.9,9.6,5.9,19.4,13.8,27.6c10.6,10.8,26.1,16.3,46.1,16.3
		c2.5,0,4.8-0.1,7.1-0.1L801.5,729.8z M938.9,709.2c2.1,0.1,4.3,0.1,6.7,0.1c20,0,35.5-5.5,46.1-16.3c6.6-6.7,10.4-14.6,12.6-22.5
		c-3.1,18.2-8.1,36.4-15.1,54.6c-11.7-2.9-24.1-1.1-35.5,4.7L938.9,709.2z M763.7,799.8c-5.4-12.4-6.2-25.5-2.2-35.1
		c1.5-3.6,4.3-8.3,9.6-10.4c1.9-0.8,3.9-1.1,6-1.1c12,0,26.6,11.8,33.9,28.6c5.4,12.4,6.2,25.5,2.2,35.1c-1.5,3.6-4.3,8.3-9.6,10.4
		C790.9,832.4,772.2,819.5,763.7,799.8z M944.2,781.8c8.5-19.7,27.2-32.6,39.9-27.5c5.3,2.1,8.1,6.8,9.6,10.4
		c4,9.6,3.1,22.8-2.2,35.1c-8.5,19.7-27.2,32.6-39.9,27.5c-5.3-2.1-8.1-6.8-9.6-10.4C938,807.3,938.8,794.2,944.2,781.8z
		 M1058.6,680.8c-6.7,32.6-20.5,41.5-37.6,42.8c10.1-29.9,15.6-59.8,16.3-89.5c9.4,2.1,15.2,5.3,18.7,10
		C1061.3,651.3,1062.1,663.6,1058.6,680.8z M822.6,436.2c0,0.2,0,0.4,0,0.6c-0.6,10.7-1.5,26.9-2.4,30.9l28.6,6.6
		c1.4-6.1,2.1-18.2,3.1-36c0.4-8.1,1-19.1,1.5-22.3c0.6-1.2,3.9-3.8,9.6-3.8l0,0h28.4l0,0c5.7,0,9,2.6,9.6,3.8
		c0.5,3.2,1.2,14.3,1.7,22.5c1.1,17.7,1.9,29.7,3.3,35.7l28.6-6.6c-0.9-4.1-2-20.3-2.6-30.9c0-0.2,0-0.4,0-0.5
		c39.3,6.3,88.3,43.1,92.4,129.3c-33.8-11.1-82.9-16.7-147.1-16.7s-113.4,5.6-147.2,16.7C734.1,479.2,783.3,442.3,822.6,436.2z
		 M695.7,680.7c-3.5-17.1-2.7-29.5,2.6-36.6c3.5-4.8,9.3-8,18.7-10c0.8,29.7,6.2,59.7,16.3,89.5
		C716.3,722.3,702.5,713.3,695.7,680.7z M965.4,952.3H788.9c-5.3-40-17.5-76.3-24-93.8c2.7-2.2,5.2-4.6,7.7-7.1
		c8,4.1,16.5,6.4,24.9,6.4c5.8,0,11.5-1.1,17.1-3.3c3-1.2,5.9-2.8,8.6-4.6c14.6,4.7,30.8,6.7,53.4,6.7c19.7,0,39.8-2.7,54.9-7.2
		c2.9,2.1,6,3.8,9.3,5.1c5.5,2.2,11.3,3.3,17.1,3.3c8.2,0,16.4-2.1,24.2-6c2.4,2.4,4.8,4.7,7.5,6.8
		C982.9,876.1,970.7,912.4,965.4,952.3z"/>
</g>
<circle class="st2" cx="298" cy="743.4" r="219.3"/>
<g>
	<path class="st0" d="M262.9,872.3c-8.7,0-16.9-3.8-22.6-10.4l-86.6-101c-10.7-12.5-9.3-31.3,3.2-42s31.3-9.3,42,3.2l62.5,72.8
		l118.3-157.7c9.9-13.2,28.6-15.8,41.7-6c13.2,9.9,15.8,28.5,6,41.7L286.8,860.4c-5.4,7.2-13.8,11.6-22.9,11.9
		C263.6,872.3,263.3,872.3,262.9,872.3z"/>
</g>
</svg>
