<?xml version="1.0" encoding="utf-8"?>
<!-- Generator: Adobe Illustrator 25.1.0, SVG Export Plug-In . SVG Version: 6.00 Build 0)  -->
<svg version="1.1" id="Calque_3" xmlns="http://www.w3.org/2000/svg" xmlns:xlink="http://www.w3.org/1999/xlink" x="0px" y="0px"
	 viewBox="0 0 1500 1500" style="enable-background:new 0 0 1500 1500;" xml:space="preserve">
<style type="text/css">
	.st0{fill:#444444;}
	.st1{fill:#FFFFFF;}
	.st2{fill:#FFFFFF;stroke:#444444;stroke-width:30;stroke-miterlimit:10;}
</style>
<g>
	<ellipse class="st0" cx="877.1" cy="746.4" rx="571.7" ry="571.7"/>
	<g>
		<g>
			<path class="st1" d="M1273.3,585.6c-0.8-6-6.2-10.2-12.1-9.4l-86.7,11l-2.7-20.1l0,0l0,0V567l0,0c-2.3-17.8-18.7-30.5-36.6-28.2
				l0,0l0,0l-86,11.1c-0.1,0-0.1,0-0.2,0s-0.2,0-0.2,0c-17.8,3.1-30,19-27.8,36.2l0,0l0,0l2.7,20.2l-80.4,10.2
				c-6,0.8-10.2,6.2-9.4,12.1c0.7,5.5,5.4,9.5,10.8,9.5c0.5,0,0.9,0,1.4-0.1l317.9-40.4C1269.8,597,1274,591.5,1273.3,585.6z
				 M1042.4,583.3L1042.4,583.3c-0.8-6.5,4.4-11,9.9-12l85.6-11.1l0,0c5.9-0.7,11.6,3.6,12.3,9.5l0,0l0,0l2.7,20.1l-107.7,13.7
				L1042.4,583.3z"/>
			<path class="st1" d="M944.6,639.7c-6.2,0-11.5-4.7-12.3-10.8c-0.9-6.8,4-13,10.7-13.9l78.8-10l-2.5-18.7
				c-2.3-18.1,10.5-34.7,29.1-37.9l0.6-0.1l85.9-11.1c18.7-2.4,35.9,10.9,38.3,29.5l2.5,18.7l85.2-10.8c3.3-0.4,6.5,0.5,9.2,2.5
				c2.6,2,4.3,5,4.7,8.2l0,0c0.4,3.3-0.5,6.5-2.5,9.1s-4.9,4.3-8.2,4.7l-317.9,40.4C945.6,639.7,945.1,639.7,944.6,639.7z
				 M1139.3,540c-1.3,0-2.6,0.1-3.9,0.3l-86.4,11.2c-17,2.9-28.6,18.1-26.6,34.5l2.9,21.8l-81.9,10.4c-5.1,0.7-8.7,5.3-8.1,10.4
				c0.6,5,5.3,8.7,10.4,8.1l317.9-40.4c2.5-0.3,4.7-1.6,6.2-3.5c1.5-2,2.2-4.4,1.9-6.9l0,0c-0.3-2.5-1.6-4.7-3.5-6.2
				c-2-1.5-4.4-2.2-6.9-1.9l-88.2,11.2l-2.9-21.6C1168.2,551.5,1154.7,540,1139.3,540z M1043.8,605.3l-2.9-21.8
				c-0.9-7.4,5-12.6,11.1-13.7l85.7-11.1c6.8-0.8,13.2,4.1,14,10.8l2.9,21.7L1043.8,605.3z M1043.9,583.1l2.5,18.7l104.7-13.3
				l-2.5-18.6c-0.6-5.1-5.5-8.9-10.6-8.2l-85.6,11.1C1047.9,573.7,1043.2,577.6,1043.9,583.1L1043.9,583.1z"/>
		</g>
		<g>
			<path class="st1" d="M1101.7,692.8c-6,0-10.9,4.9-10.9,10.9v239.7c0,6,4.9,10.9,10.9,10.9s10.9-4.9,10.9-10.9V703.6
				C1112.5,697.6,1107.7,692.8,1101.7,692.8z"/>
			<path class="st1" d="M1101.7,955.8c-6.8,0-12.4-5.6-12.4-12.4V703.6c0-6.8,5.6-12.4,12.4-12.4s12.4,5.6,12.4,12.4v239.7
				C1114.1,950.2,1108.5,955.8,1101.7,955.8z M1101.7,694.3c-5.1,0-9.3,4.2-9.3,9.3v239.7c0,5.1,4.2,9.3,9.3,9.3s9.3-4.2,9.3-9.3
				V703.6C1111,698.5,1106.8,694.3,1101.7,694.3z"/>
		</g>
		<g>
			<path class="st1" d="M1029.1,702.8c-0.5-6-5.7-10.4-11.7-10c-6,0.5-10.4,5.7-10,11.7l19.3,239.7c0.5,5.7,5.2,10,10.8,10
				c0.3,0,0.6,0,0.9,0c6-0.5,10.4-5.7,10-11.7L1029.1,702.8z"/>
			<path class="st1" d="M1037.6,955.8c-6.4,0-11.8-5-12.3-11.4L1006,704.6c-0.5-6.8,4.5-12.8,11.4-13.3c6.8-0.6,12.8,4.5,13.3,11.4
				l19.3,239.7c0.5,6.8-4.5,12.8-11.4,13.3C1038.2,955.7,1037.9,955.8,1037.6,955.8z M1018.3,694.3c-0.3,0-0.5,0-0.8,0
				c-5.1,0.4-9,4.9-8.6,10.1l19.3,239.7c0.4,5.1,4.9,9,10.1,8.6c2.5-0.2,4.7-1.4,6.4-3.3c1.6-1.9,2.4-4.3,2.2-6.8l-19.3-239.7
				C1027.2,698,1023.1,694.3,1018.3,694.3z"/>
		</g>
		<g>
			<path class="st1" d="M1265.8,657.1c-0.1-0.2-0.2-0.4-0.2-0.7c0-0.1-0.1-0.2-0.1-0.3c-0.1-0.3-0.2-0.5-0.4-0.8
				c0-0.1-0.1-0.1-0.1-0.2c-0.1-0.2-0.3-0.4-0.4-0.7c0-0.1-0.1-0.2-0.1-0.2c-0.1-0.2-0.3-0.4-0.4-0.5s-0.1-0.2-0.2-0.3
				s-0.2-0.3-0.4-0.4c-0.1-0.1-0.2-0.2-0.3-0.4c-0.1-0.1-0.2-0.2-0.3-0.3c-0.2-0.1-0.3-0.3-0.5-0.4c-0.1-0.1-0.2-0.1-0.3-0.2
				c-0.2-0.1-0.4-0.3-0.6-0.4c-0.1-0.1-0.2-0.1-0.3-0.2c-0.2-0.1-0.4-0.3-0.6-0.4c-0.1-0.1-0.3-0.1-0.5-0.2
				c-0.2-0.1-0.3-0.2-0.5-0.2c-1-0.4-2-0.7-3.2-0.8l0,0c-0.1,0-0.3,0-0.4,0c-0.2,0-0.5,0-0.7,0l0,0l0,0H948l0,0l0,0
				c-0.2,0-0.3,0-0.5,0s-0.4,0-0.6,0l0,0c-1.1,0.1-2.2,0.4-3.1,0.8c-0.3,0.1-0.6,0.3-0.9,0.4c0,0,0,0-0.1,0
				c-0.6,0.3-1.1,0.7-1.6,1.1l-0.1,0.1c-0.2,0.2-0.4,0.3-0.6,0.5c-0.1,0.1-0.1,0.1-0.2,0.2c-0.1,0.1-0.3,0.3-0.4,0.4
				c-0.1,0.1-0.2,0.2-0.3,0.4c-0.1,0.1-0.2,0.2-0.2,0.3c-0.1,0.2-0.3,0.3-0.4,0.5c0,0.1-0.1,0.1-0.1,0.2c-0.1,0.2-0.3,0.4-0.4,0.7
				c0,0,0,0.1-0.1,0.1c-0.1,0.3-0.3,0.5-0.4,0.8c0,0.1-0.1,0.2-0.1,0.3c-0.1,0.2-0.2,0.5-0.3,0.7c-0.3,1-0.5,2.1-0.5,3.2l0,0
				c0,0.2,0,0.4,0,0.6c0,0.2,0,0.3,0,0.5l0,0l0,0L967.5,968l0,0c1.6,16.5,16,29.4,32.7,29.4h203c16.7,0,30.6-12.7,32.3-29.4l0,0
				l30.7-306.7l0,0l0,0c0-0.1,0-0.3,0-0.4c0-0.2,0-0.4,0-0.7l0,0C1266.3,659.2,1266.1,658.1,1265.8,657.1z M1213.9,966L1213.9,966
				c-0.6,5.6-5.2,9.9-10.7,9.9h-203c-5.6,0-10.5-4.3-11.1-9.9l0,0l-29.2-294.8h283.5L1213.9,966z"/>
			<path class="st1" d="M1203.2,999.1h-203c-17.5,0-32.5-13.5-34.2-30.8l-30.4-307.2c0-0.5,0-0.6,0-0.8c0-1.3,0.2-2.5,0.6-3.7
				c0.1-0.3,0.2-0.5,0.3-0.8l0.1-0.3c0.1-0.3,0.3-0.6,0.4-0.9c0.2-0.4,0.4-0.7,0.5-0.9l0.2-0.3c0.1-0.1,0.2-0.3,0.3-0.5l0.4-0.5
				c0.1-0.1,0.2-0.2,0.3-0.3c0.2-0.3,0.4-0.4,0.5-0.5l0.3-0.3c0.2-0.2,0.4-0.4,0.6-0.6c0.7-0.6,1.3-1,2-1.3c0.4-0.2,0.7-0.4,1.1-0.5
				c1.1-0.5,2.4-0.8,3.6-0.9c0.2,0,0.3,0,0.5,0l0.4,1.5l-0.1-1.5h0.4h307.5c0.2,0,0.4,0,0.6,0l0.3,1.5l0.1-1.5h0.3
				c1.2,0.1,2.4,0.4,3.6,0.9c0.1,0.1,0.3,0.1,0.4,0.2l0.6,0.3c0.2,0.1,0.5,0.3,0.7,0.4l0.4,0.2c0.2,0.1,0.4,0.3,0.6,0.4l0.4,0.3
				c0.1,0.1,0.3,0.2,0.4,0.4l0.8,0.8c0.3,0.3,0.4,0.4,0.5,0.6l0.2,0.3c0.2,0.3,0.3,0.4,0.4,0.6l0.2,0.3c0.2,0.3,0.3,0.5,0.5,0.8
				c0.2,0.5,0.4,0.8,0.5,1.1l0.1,0.3c0.1,0.3,0.2,0.6,0.3,0.8l0,0c0.4,1.2,0.6,2.4,0.6,3.7c0,0.2,0,0.4,0,0.6l-1.5,0.3l1.5,0.1v0.3
				l-31,306.6C1235.3,985.9,1220.7,999.1,1203.2,999.1z M939.3,653.7l1.2,0.9l-0.3,0.4c-0.2,0.4-0.4,0.6-0.5,0.8
				c-0.2,0.3-0.3,0.6-0.4,0.8c-0.2,0.4-0.2,0.6-0.3,0.8c-0.3,0.9-0.4,1.8-0.4,2.8l0.1,1.1L969,968c1.6,15.7,15.2,28.1,31.1,28.1h203
				c16,0,29.2-12.1,30.8-28l30.7-306.7l1.5-0.3l-1.5-0.1v-0.6c0-0.9-0.1-1.9-0.4-2.8c-0.1-0.2-0.1-0.4-0.2-0.5l1.3-0.9l-1.4,0.6
				c-0.1-0.2-0.2-0.4-0.3-0.6c-0.2-0.4-0.3-0.5-0.4-0.7l-1.1-1.5l0.9-1.3l-1.2,0.9l-0.5-0.5l0.7-1.4l-1,1.1
				c-0.1-0.1-0.3-0.2-0.4-0.3l0.6-1.4l-0.9,1.3c-0.2-0.1-0.3-0.2-0.5-0.3l-0.8-0.4c-0.9-0.4-1.8-0.6-2.7-0.7l-0.3-1.5l-0.1,1.5h-0.6
				H948l-0.4-1.5l-0.2,1.5h-0.5c-0.8,0.1-1.7,0.3-2.6,0.7c-0.3,0.1-0.5,0.2-0.7,0.4c-0.6,0.3-1,0.6-1.5,1c-0.3,0.2-0.4,0.4-0.6,0.5
				L941,654l-1.5-0.6l1.2,1L939.3,653.7z M1203.2,977.4h-203c-6.4,0-11.9-4.9-12.6-11.2l-29.4-296.5h286.9l-0.2,1.7l-29.6,294.8
				C1214.7,972.6,1209.5,977.4,1203.2,977.4z M961.6,672.7l29,293.2c0.5,4.8,4.7,8.5,9.5,8.5h203c4.7,0,8.7-3.6,9.2-8.5l0,0
				l29.4-293.2H961.6z"/>
		</g>
		<g>
			<path class="st1" d="M1185.9,692.8c-6-0.5-11.2,4-11.7,10L1155,942.5c-0.5,6,4,11.2,10,11.7c0.3,0,0.6,0,0.9,0
				c5.6,0,10.4-4.3,10.8-10l19.3-239.7C1196.4,698.5,1191.9,693.3,1185.9,692.8z"/>
			<path class="st1" d="M1165.8,955.8c-0.3,0-0.7,0-1,0c-3.3-0.3-6.3-1.8-8.4-4.3s-3.2-5.7-2.9-9l19.3-239.7
				c0.5-6.8,6.6-11.9,13.3-11.4l0,0c6.8,0.5,11.9,6.5,11.4,13.3l-19.3,239.7C1177.6,950.8,1172.2,955.8,1165.8,955.8z M1185.1,694.3
				c-4.8,0-8.9,3.7-9.3,8.6l-19.3,239.7c-0.2,2.5,0.6,4.9,2.2,6.8c1.6,1.9,3.9,3.1,6.4,3.3c5.1,0.4,9.6-3.5,10.1-8.6l19.3-239.7
				c0.4-5.1-3.4-9.6-8.6-10.1l0,0C1185.5,694.3,1185.3,694.3,1185.1,694.3z"/>
		</g>
	</g>
	<path class="st1" d="M914.1,813.1H574.7v-19h337.6l-1.9-19.8H702.6V758h206.2l-1.9-19.8H591.1c-4.4,0-8.5-5.4-8.5-11
		c0-4.9,3.3-10.3,8.5-10.3h313.8l-1.9-19.8H702.6v-14.4h198.9l-1.9-19.8H591.1c-5,0-9.3-4.9-9.3-10.6c0-5.7,4.3-10.7,9.3-10.7h306.5
		l-1.9-19.8h-193v-10.5c0-0.1,0-0.1,0-0.2V611c-0.5-14.7-12.4-26.1-26.9-26.1h-0.1c-14.4,0.1-26.5,12-27,26.5c0,0.1,0,0.1,0,0.1v0.1
		v10.1h-57.6c-16.1,0-29.1,13.7-29.1,30.5s13.1,30.5,29.1,30.5h57.6v14.4h-57.6c-15.6,0-28.3,13.5-28.3,30.1
		c0,16.7,13,30.8,28.3,30.8h57.6v16.3h-76.9c-9.3,0-16.8,7.7-16.8,17.2v24.2c0,9.5,7.5,17.2,16.8,17.2h9.3v79.6
		c0,5.5,4.4,9.9,9.9,9.9h36.5c5.5,0,9.9-4.4,9.9-9.9v-79.6H649v66.9c0,5.5,4.4,9.9,9.9,9.9H695c5.5,0,9.9-4.4,9.9-9.9v-66.9H916
		L914.1,813.1z M668.4,611.9c0.1-3.9,3.5-7.2,7.2-7.3l0,0c3.8,0,6.9,3,7.1,6.9v10.2h-14.4v-9.8H668.4z M668.4,682.7h14.4v14.4h-14.4
		V682.7z M668.4,758h14.4v16.3h-14.4V758z M617.5,902.6h-16.7v-69.7h16.7V902.6z M685.1,889.9h-16.3v-57h16.3V889.9z"/>
</g>
<circle class="st2" cx="298" cy="743.4" r="219.3"/>
<g>
	<path class="st0" d="M262.9,872.3c-8.7,0-16.9-3.8-22.6-10.4l-86.6-101c-10.7-12.5-9.3-31.3,3.2-42s31.3-9.3,42,3.2l62.5,72.8
		l118.3-157.7c9.9-13.2,28.6-15.8,41.7-6c13.2,9.9,15.8,28.5,6,41.7L286.8,860.4c-5.4,7.2-13.8,11.6-22.9,11.9
		C263.6,872.3,263.3,872.3,262.9,872.3z"/>
</g>
</svg>
