<?xml version="1.0" encoding="utf-8"?>
<!-- Generator: Adobe Illustrator 25.0.1, SVG Export Plug-In . SVG Version: 6.00 Build 0)  -->
<svg version="1.1" id="Layer_1" xmlns="http://www.w3.org/2000/svg" xmlns:xlink="http://www.w3.org/1999/xlink" x="0px" y="0px"
	 viewBox="0 0 26 17.4" style="enable-background:new 0 0 26 17.4;" xml:space="preserve">
<style type="text/css">
	.st0{fill:#FFFFFF;}
</style>
<path class="st0" d="M25.1,12.6h-1.3c-0.2-5-2.5-8.8-6.4-10.5V1.7c0-0.8-0.6-1.5-1.4-1.5h-5.5C9.7,0.2,9,0.9,9,1.7v0.2
	C5,3.6,2.5,7.5,2.3,12.6H1c-0.5,0-0.9,0.4-0.9,0.9c0,0.5,0.4,0.9,0.9,0.9h0.6c1.4,2.7,10.4,2.8,11.6,2.8c1.1,0,10.2-0.1,11.6-2.8
	h0.4c0.5,0,0.9-0.4,0.9-0.9C26,13,25.6,12.6,25.1,12.6z M17.6,12.6L19.8,6c1.4,1.7,2.2,3.9,2.3,6.5H17.6z M17.4,7.6V4.1
	c0.3,0.2,0.6,0.4,0.9,0.6L17.4,7.6z M15.6,12.6h-4.8V2h4.8V12.6z M9,8.6L7.8,4.7C8.2,4.4,8.6,4.1,9,3.9V8.6z M8.5,12.6H4.1
	C4.2,9.9,5,7.7,6.3,6.1L8.5,12.6z M21.5,14.4c-1.6,0.5-4.4,1-8.3,1c-3.9,0-6.7-0.5-8.3-1H21.5z M25.1,13.9L25.1,13.9L25.1,13.9
	L25.1,13.9z"/>
</svg>
