<?xml version="1.0" encoding="utf-8"?>
<!-- Generator: Adobe Illustrator 25.0.1, SVG Export Plug-In . SVG Version: 6.00 Build 0)  -->
<svg version="1.1" id="Layer_1" xmlns="http://www.w3.org/2000/svg" xmlns:xlink="http://www.w3.org/1999/xlink" x="0px" y="0px"
	 viewBox="0 0 18.2 17.4" style="enable-background:new 0 0 18.2 17.4;" xml:space="preserve">
<style type="text/css">
	.st0{fill:#FFFFFF;}
</style>
<path class="st0" d="M18.1,9.7c0-1.2-0.9-2.2-2-2.4V7.2c0-3.9-3.1-7-7-7s-7,3.1-7,7v0.1c-1.1,0.2-2,1.2-2,2.4c0,1.4,1.1,2.5,2.5,2.5
	h0.6c0.5,2.8,2.9,5,5.9,5c2.2,0,4.1-1.2,5.2-3h1.3c0.3,0,0.5-0.2,0.5-0.5v-1.6C17.2,11.9,18.1,10.9,18.1,9.7z M9.1,1.2
	c3.3,0,6,2.7,6,6H15c-0.5-2.8-2.9-5-5.9-5s-5.4,2.2-5.9,5H3.1C3.1,3.9,5.8,1.2,9.1,1.2z M14,7.1c-1.3-0.2-2.4-1.2-2.9-2.4l-0.1-0.2
	c-0.1-0.2-0.2-0.3-0.4-0.3c-0.2,0-0.3,0-0.5,0.1L8.5,6.1C7.8,6.8,6.8,7.2,5.9,7.2H4.2c0.5-2.3,2.5-4,4.9-4C11.5,3.2,13.5,4.9,14,7.1
	z M2.6,11.2c-0.8,0-1.5-0.7-1.5-1.5s0.7-1.5,1.5-1.5h0.5v3H2.6z M9.1,16.2c-2.8,0-5-2.2-5-5v-3h1.8c1.2,0,2.4-0.5,3.3-1.4l1.2-1.2
	C11.1,7,12.5,8,14.1,8.2c0,0,0,0,0,0v3c0,0.7-0.2,1.4-0.4,2h-3.2c-0.2-0.6-0.8-1-1.4-1c-0.8,0-1.5,0.7-1.5,1.5s0.7,1.5,1.5,1.5
	c0.7,0,1.2-0.4,1.4-1h2.6C12.1,15.4,10.7,16.2,9.1,16.2z M9.6,13.7c0,0.3-0.2,0.5-0.5,0.5S8.6,14,8.6,13.7s0.2-0.5,0.5-0.5
	S9.6,13.4,9.6,13.7z M14.7,13.2c0.1-0.3,0.2-0.7,0.3-1h0.1v1H14.7z M15.6,11.2h-0.5v-3h0.5c0.8,0,1.5,0.7,1.5,1.5
	S16.4,11.2,15.6,11.2z"/>
</svg>
