<?xml version="1.0" encoding="utf-8"?>
<!-- Generator: Adobe Illustrator 25.0.1, SVG Export Plug-In . SVG Version: 6.00 Build 0)  -->
<svg version="1.1" id="Calque_1" xmlns="http://www.w3.org/2000/svg" xmlns:xlink="http://www.w3.org/1999/xlink" x="0px" y="0px"
	 viewBox="0 0 238.6 242.3" style="enable-background:new 0 0 238.6 242.3;" xml:space="preserve">
<style type="text/css">
	.st0{fill:#C8D523;}
	.st1{fill:#ECECEC;}
</style>
<path class="st0" d="M119.2,3C53.9,3,1,55.9,1,121.2s52.9,118.2,118.2,118.2s118.2-52.9,118.2-118.2S184.5,3,119.2,3z M119.2,230
	c-60,0-108.8-48.8-108.8-108.8c0-60,48.8-108.8,108.8-108.8c60,0,108.8,48.8,108.8,108.8C228,181.2,179.2,230,119.2,230z"/>
<path class="st1" d="M179.3,114.5c0.8-1.1,0.8-2.7,0-3.8l-8.9-12.9c-0.6-0.9-1.7-1.5-2.8-1.5h-36.9V69.9c0-0.7-0.2-1.4-0.6-2
	l-6.4-8.9c-0.6-0.9-1.6-1.4-2.7-1.4c-1.1,0-2.1,0.5-2.7,1.4l-6.4,8.9c-0.4,0.6-0.6,1.3-0.6,2v0.7H74.2c-1.1,0-2.1,0.5-2.8,1.5
	l-8.9,12.9c-0.8,1.1-0.8,2.7,0,3.8l8.9,12.9c0.6,0.9,1.7,1.5,2.8,1.5h36.9v69H89.4v6.7h63.1v-6.7h-21.8v-43.3h36.9
	c1.1,0,2.1-0.5,2.8-1.5L179.3,114.5z"/>
</svg>
