<?xml version="1.0" encoding="utf-8"?>
<!-- Generator: Adobe Illustrator 25.0.1, SVG Export Plug-In . SVG Version: 6.00 Build 0)  -->
<svg version="1.1" id="Calque_1" xmlns="http://www.w3.org/2000/svg" xmlns:xlink="http://www.w3.org/1999/xlink" x="0px" y="0px"
	 viewBox="0 0 238.6 242.3" style="enable-background:new 0 0 238.6 242.3;" xml:space="preserve">
<style type="text/css">
	.st0{fill:#C8D523;}
	.st1{fill:#ECECEC;}
</style>
<path class="st0" d="M119.2,3C53.9,3,1,55.9,1,121.2s52.9,118.2,118.2,118.2s118.2-52.9,118.2-118.2S184.5,3,119.2,3z M119.2,230
	c-60,0-108.8-48.8-108.8-108.8c0-60,48.8-108.8,108.8-108.8c60,0,108.8,48.8,108.8,108.8C228,181.2,179.2,230,119.2,230z"/>
<g>
	<path class="st1" d="M130.6,65c-3.4,1-7.1,1.6-11.2,1.6c-4,0-7.8-0.6-11.2-1.6l11.2,25.8L130.6,65z"/>
	<path class="st1" d="M156.8,77.2c0-2.7,0.1-5.3,0.4-7.9l-18.8-6.2l-20.2,46.7v51.5c0,4.7,3.8,8.4,8.4,8.4h20.4h21.8v-55
		C161.9,109.3,156.8,94.5,156.8,77.2z M162.4,144.4h-37.8V138h37.8V144.4z M162.4,131.5h-37.8V125h37.8V131.5z"/>
	<path class="st1" d="M115.9,98.9l-15.5-35.8l-18.8,6.2c0.2,2.5,0.4,5.2,0.4,7.9c0,17.3-5,32-12,37.6v55h21.8h20.4
		c0.7,0,1.3-0.1,2-0.2c-1.6-2.4-2.5-5.2-2.5-8.2v-52.9L115.9,98.9z M105.2,144.4H76.5V138h28.8V144.4z M105.2,131.5H76.5V125h28.8
		V131.5z"/>
</g>
</svg>
