<?xml version="1.0" encoding="utf-8"?>
<!-- Generator: Adobe Illustrator 25.0.1, SVG Export Plug-In . SVG Version: 6.00 Build 0)  -->
<svg version="1.1" id="Calque_1" xmlns="http://www.w3.org/2000/svg" xmlns:xlink="http://www.w3.org/1999/xlink" x="0px" y="0px"
	 viewBox="0 0 238.6 242.3" style="enable-background:new 0 0 238.6 242.3;" xml:space="preserve">
<style type="text/css">
	.st0{fill:#C8D523;}
	.st1{fill:#ECECEC;}
</style>
<path class="st0" d="M119.2,3C53.9,3,1,55.9,1,121.2s52.9,118.2,118.2,118.2s118.2-52.9,118.2-118.2S184.5,3,119.2,3z M119.2,230
	c-60,0-108.8-48.8-108.8-108.8c0-60,48.8-108.8,108.8-108.8c60,0,108.8,48.8,108.8,108.8C228,181.2,179.2,230,119.2,230z"/>
<path class="st1" d="M182.8,167.6l0.7,0.1v0L182.8,167.6l0.1-0.6l0-25h0.8l0,0l-0.8,0c0-1.9-0.6-3.7-1.8-5.2l-0.2-0.2L152,106.8
	V87.4h0.8c2.1,0,4.1-1.3,4.9-3.4c0.8-2,0.3-4.2-1.2-5.7l-0.1-0.1l-29.9-28.5c-2-1.9-5.2-1.9-7.2,0L89.3,78.4c-1.5,1.4-2,3.7-1.2,5.7
	c0.8,2,2.7,3.4,4.8,3.4h0.8l0,0.8v30.6h-0.9c-5.9,0-11.4,2.7-15,7.3L56.7,153c-0.8,1-2,1.6-3.3,1.6l-2.2,0c-4.1,0.1-7.3,3.4-7.3,7.5
	c0,4.2,3.2,7.5,7.3,7.6l2.2,0c5.9,0,11.5-2.7,15.1-7.3l21.1-26.9c0.8-1,1.9-1.6,3.2-1.6h0.9v33.3c0,1.4,1.1,2.6,2.6,2.6h10
	c1.4,0,2.6-1.1,2.6-2.6v-1.9h28.1v1.9c0,1.4,1.1,2.6,2.6,2.6h10c1.4,0,2.6-1.1,2.6-2.6v-12.7l11.6,12c1.6,1.7,3.9,2.6,6.2,2.6h11
	c0.1,0,0.1,0,0.2,0l0.5-0.1l0.4,0.7l-0.3-0.7l0.2-0.1l0.5,0.6l0,0l-0.4-0.6l0.4-0.3l0.7,0.4v0l0,0l-0.6-0.5l0.1-0.1l0.6,0.4v0
	l-0.6-0.5l0.2-0.4l0.7,0.2c0,0,0,0,0,0l-0.7-0.3L182.8,167.6z M160.1,130l7.9,8.2V156l-7.9-8.2V130z M136.9,150.6h-28.1v-12.5h28.1
	V150.6z M136.9,127.6h-28.1v-6.1c0-7.8,6.3-14.1,14.1-14.1c7.7,0,14,6.3,14,14.1V127.6z M136.9,101.4l-1.3-1.1
	c-3.5-3.1-8-4.9-12.8-4.9c-4.7,0-9.3,1.8-12.8,4.9l-1.3,1.1V87.4h28.1V101.4z"/>
</svg>
