<?xml version="1.0" encoding="utf-8"?>
<!-- Generator: Adobe Illustrator 25.0.1, SVG Export Plug-In . SVG Version: 6.00 Build 0)  -->
<svg version="1.1" id="Calque_1" xmlns="http://www.w3.org/2000/svg" xmlns:xlink="http://www.w3.org/1999/xlink" x="0px" y="0px"
	 viewBox="0 0 238.6 242.3" style="enable-background:new 0 0 238.6 242.3;" xml:space="preserve">
<style type="text/css">
	.st0{fill:#C8D523;}
	.st1{fill:#ECECEC;}
</style>
<path class="st0" d="M119.2,3C53.9,3,1,55.9,1,121.2s52.9,118.2,118.2,118.2s118.2-52.9,118.2-118.2S184.5,3,119.2,3z M119.2,230
	c-60,0-108.8-48.8-108.8-108.8c0-60,48.8-108.8,108.8-108.8c60,0,108.8,48.8,108.8,108.8C228,181.2,179.2,230,119.2,230z"/>
<g>
	<path class="st1" d="M197.6,78.8c-0.2-1.2-1.2-2-2.4-1.9l-17.5,2.2l-0.5-4.1c0,0,0,0,0,0c0,0,0,0,0,0l0,0c0,0,0,0,0,0
		c-0.5-3.6-3.8-6.1-7.4-5.7c0,0,0,0,0,0c0,0,0,0,0,0l-17.3,2.2c0,0,0,0,0,0c0,0,0,0,0,0c-3.6,0.6-6,3.8-5.6,7.3c0,0,0,0,0,0
		c0,0,0,0,0,0l0.5,4.1L131,85c-1.2,0.2-2,1.2-1.9,2.4c0.1,1.1,1.1,1.9,2.2,1.9c0.1,0,0.2,0,0.3,0l64.1-8.1
		C196.9,81.1,197.7,80,197.6,78.8z M151,78.3L151,78.3c-0.2-1.3,0.9-2.2,2-2.4l17.3-2.2c0,0,0,0,0,0c1.2-0.2,2.3,0.7,2.5,1.9
		c0,0,0,0,0,0c0,0,0,0,0,0l0.5,4l-21.7,2.8L151,78.3z"/>
	<path class="st1" d="M196.2,93.8c0-0.2,0-0.4-0.1-0.6c0,0,0-0.1,0-0.1c0,0,0,0,0-0.1c0-0.1,0-0.1-0.1-0.2c0,0,0,0,0,0
		c0,0-0.1-0.1-0.1-0.1c0,0,0,0,0,0c0,0-0.1-0.1-0.1-0.1c0,0,0,0,0-0.1c0,0,0-0.1-0.1-0.1c0,0,0,0-0.1-0.1c0,0,0,0-0.1-0.1
		c0,0-0.1-0.1-0.1-0.1c0,0,0,0-0.1,0c0,0-0.1-0.1-0.1-0.1c0,0,0,0-0.1,0c0,0-0.1-0.1-0.1-0.1c0,0-0.1,0-0.1,0c0,0-0.1,0-0.1,0
		c-0.2-0.1-0.4-0.1-0.6-0.2c0,0,0,0,0,0c0,0-0.1,0-0.1,0c0,0-0.1,0-0.1,0h0c0,0,0,0,0,0h-62c0,0,0,0,0,0h0c0,0-0.1,0-0.1,0
		c0,0-0.1,0-0.1,0c0,0,0,0,0,0c-0.2,0-0.4,0.1-0.6,0.2c-0.1,0-0.1,0.1-0.2,0.1c0,0,0,0,0,0c-0.1,0.1-0.2,0.1-0.3,0.2c0,0,0,0,0,0
		c0,0-0.1,0.1-0.1,0.1c0,0,0,0,0,0c0,0-0.1,0.1-0.1,0.1c0,0,0,0-0.1,0.1c0,0,0,0,0,0.1c0,0-0.1,0.1-0.1,0.1c0,0,0,0,0,0
		c0,0-0.1,0.1-0.1,0.1c0,0,0,0,0,0c0,0.1-0.1,0.1-0.1,0.2c0,0,0,0,0,0.1c0,0,0,0.1-0.1,0.1c-0.1,0.2-0.1,0.4-0.1,0.6c0,0,0,0,0,0
		c0,0,0,0.1,0,0.1c0,0,0,0.1,0,0.1l0,0c0,0,0,0,0,0l6.1,61.8c0,0,0,0,0,0c0.3,3.3,3.2,5.9,6.6,5.9h40.9c3.4,0,6.2-2.6,6.5-5.9
		c0,0,0,0,0,0l6.2-61.8c0,0,0,0,0,0l0,0c0,0,0-0.1,0-0.1C196.2,93.9,196.2,93.9,196.2,93.8C196.2,93.8,196.2,93.8,196.2,93.8z
		 M149.7,153.4c-0.1,0-0.2,0-0.3,0c-1.8,0-3.3-1-3.5-2.3l-5.4-48.3c-0.2-1.4,1.3-2.6,3.2-2.7c1.9-0.1,3.6,0.9,3.8,2.3l5.4,48.3
		C153.1,152.1,151.6,153.3,149.7,153.4z M166.5,150.9c0,1.4-1.6,2.5-3.5,2.5c-1.9,0-3.5-1.1-3.5-2.5v-48.3c0-1.4,1.6-2.5,3.5-2.5
		c1.9,0,3.5,1.1,3.5,2.5V150.9z M180,151.1c-0.1,1.3-1.7,2.3-3.5,2.3c-0.1,0-0.2,0-0.3,0c-1.9-0.1-3.4-1.3-3.2-2.7l5.4-48.3
		c0.2-1.4,1.8-2.4,3.8-2.3c1.9,0.1,3.4,1.3,3.2,2.7L180,151.1z"/>
</g>
<path class="st1" d="M122.5,126.2h-58v-7.1h57.2c-0.3-2.9-0.7-5.8-1-8.7H64.6v-6.3h55.5c-0.4-3.2-0.7-6.1-0.9-8.5H64.6l0-4.3
	c0,0,0,0,0,0c0,0,0,0,0,0c-0.1-3-0.1-5.3-3-5.3h0c-2.9,0-3.2,2.4-3.3,5.3c0,0,0,0,0,0c0,0,0,0,0,0l0,4.2H41.4c-3.2,0-5.8,0.6-5.8,4
	c0,3.4,2.6,4.5,5.9,4.5h16.8v6.3H41.4c-3.2,0-5.7,1-5.7,4.3c0,3.4,2.6,4.4,5.7,4.4h16.8v7.1H37.5c-1.9,0-3.4,1.6-3.4,3.5v2.9
	c0,1.9,1.5,3.5,3.4,3.5h5.2v16c0,1.1,0.9,2,2,2h2.4c1.1,0,2-0.9,2-2v-16h9.1v13.5c0,1.1,0.9,2,2,2h2.3c1.1,0,2-0.9,2-2v-13.5h59.2
	C123.4,133.7,123,130.3,122.5,126.2z"/>
</svg>
