<?xml version="1.0" encoding="utf-8"?>
<!-- Generator: Adobe Illustrator 25.0.1, SVG Export Plug-In . SVG Version: 6.00 Build 0)  -->
<svg version="1.1" id="Calque_1" xmlns="http://www.w3.org/2000/svg" xmlns:xlink="http://www.w3.org/1999/xlink" x="0px" y="0px"
	 viewBox="0 0 172.6 134.5" style="enable-background:new 0 0 172.6 134.5;" xml:space="preserve">
<style type="text/css">
	.st0{fill:#FFFFFF;}
	.st1{fill:#FFCC07;}
	.st2{fill:url(#SVGID_1_);}
	.st3{fill:url(#SVGID_2_);}
</style>
<g>
	<g>
		<path class="st0" d="M10.1,121l1.8,5.4l1.8-5.4h1.9l-2.5,7.2h-2.3L8.3,121H10.1z"/>
		<path class="st0" d="M17.9,122.4v1.5h2.4v1.3h-2.4v1.6h2.7v1.4h-4.5V121h4.5v1.4H17.9z M18.4,119.7l-1.6,0.9v-1.2l1.6-0.9l1.6,0.9
			v1.2L18.4,119.7z"/>
		<path class="st0" d="M26.8,121v1.4h-2v5.8h-1.8v-5.8h-1.9V121H26.8z"/>
		<path class="st0" d="M29.3,122.4v1.5h2.4v1.3h-2.4v1.6h2.7v1.4h-4.5V121h4.5v1.4H29.3z"/>
		<path class="st0" d="M41.2,121.1v7.2h-1.7v-4.5l-1.6,4.5h-1.5l-1.6-4.5v4.5h-1.7v-7.2h2.1l1.9,5l1.9-5H41.2z"/>
		<path class="st0" d="M44.1,122.4v1.5h2.4v1.3h-2.4v1.6h2.7v1.4h-4.5V121h4.5v1.4H44.1z"/>
		<path class="st0" d="M54.3,128.2h-1.7l-2.9-4.4v4.4h-1.7V121h1.7l2.9,4.5V121h1.7V128.2z"/>
		<path class="st0" d="M60.6,121v1.4h-2v5.8h-1.8v-5.8H55V121H60.6z"/>
		<path class="st0" d="M66.3,127.3c-0.2,0.3-0.5,0.6-0.9,0.8c-0.4,0.2-0.8,0.3-1.4,0.3c-0.8,0-1.5-0.2-2-0.6
			c-0.5-0.4-0.8-0.9-0.9-1.7H63c0,0.3,0.1,0.5,0.3,0.6c0.2,0.2,0.4,0.2,0.6,0.2c0.2,0,0.4-0.1,0.5-0.2c0.1-0.1,0.2-0.3,0.2-0.5
			c0-0.2-0.1-0.3-0.2-0.5s-0.3-0.2-0.4-0.3c-0.2-0.1-0.4-0.2-0.7-0.3c-0.5-0.2-0.8-0.3-1.1-0.5s-0.5-0.4-0.7-0.7s-0.3-0.7-0.3-1.1
			c0-0.4,0.1-0.8,0.3-1.1c0.2-0.3,0.5-0.6,0.9-0.7c0.4-0.2,0.8-0.2,1.3-0.2c0.8,0,1.4,0.2,1.9,0.6s0.7,0.9,0.8,1.6h-1.9
			c0-0.2-0.1-0.4-0.3-0.6c-0.1-0.1-0.3-0.2-0.6-0.2c-0.2,0-0.4,0.1-0.5,0.2c-0.1,0.1-0.2,0.3-0.2,0.5c0,0.2,0.1,0.3,0.2,0.4
			s0.3,0.2,0.4,0.3c0.2,0.1,0.4,0.2,0.7,0.3c0.5,0.2,0.8,0.3,1.1,0.5c0.3,0.2,0.5,0.4,0.8,0.7c0.2,0.3,0.3,0.7,0.3,1.1
			C66.6,126.6,66.5,126.9,66.3,127.3z"/>
		<path class="st0" d="M71.3,122.4v1.5h2.4v1.3h-2.4v1.6h2.7v1.4h-4.5V121h4.5v1.4H71.3z"/>
		<path class="st0" d="M80.2,121v1.4h-2v5.8h-1.8v-5.8h-1.9V121H80.2z"/>
		<path class="st0" d="M91.1,121.1v7.2h-1.7v-4.5l-1.6,4.5h-1.5l-1.6-4.5v4.5H83v-7.2h2.1l1.9,5l1.9-5H91.1z"/>
		<path class="st0" d="M97.6,121.4c0.6,0.3,1,0.8,1.3,1.3c0.3,0.6,0.5,1.2,0.5,1.9c0,0.7-0.2,1.3-0.5,1.9c-0.3,0.6-0.8,1-1.3,1.3
			c-0.6,0.3-1.2,0.5-1.8,0.5s-1.3-0.2-1.8-0.5c-0.6-0.3-1-0.8-1.3-1.3s-0.5-1.2-0.5-1.9c0-0.7,0.2-1.3,0.5-1.9
			c0.3-0.6,0.8-1,1.3-1.3c0.6-0.3,1.2-0.5,1.8-0.5C96.4,120.9,97,121.1,97.6,121.4z M94.4,123.1c-0.3,0.4-0.5,0.9-0.5,1.5
			c0,0.6,0.2,1.1,0.5,1.5c0.3,0.4,0.8,0.6,1.4,0.6c0.6,0,1-0.2,1.4-0.6s0.5-0.9,0.5-1.5c0-0.6-0.2-1.1-0.5-1.5
			c-0.3-0.4-0.8-0.6-1.4-0.6S94.7,122.7,94.4,123.1z"/>
		<path class="st0" d="M105.7,125.2c0.3,0.3,0.4,0.7,0.4,1.1c0,0.6-0.2,1.1-0.6,1.4c-0.4,0.3-1,0.5-1.8,0.5h-3.4V121h3.3
			c0.7,0,1.3,0.2,1.7,0.5c0.4,0.3,0.6,0.8,0.6,1.4c0,0.4-0.1,0.8-0.3,1.1c-0.2,0.3-0.5,0.5-0.9,0.6
			C105.1,124.6,105.5,124.8,105.7,125.2z M102.1,124h1.1c0.6,0,0.9-0.3,0.9-0.8s-0.3-0.8-0.9-0.8h-1.1V124z M104.3,126
			c0-0.3-0.1-0.5-0.3-0.6s-0.4-0.2-0.7-0.2h-1.2v1.6h1.2C104,126.8,104.3,126.6,104.3,126z"/>
		<path class="st0" d="M108.8,121v7.2H107V121H108.8z"/>
		<path class="st0" d="M111.7,126.9h2.3v1.3H110V121h1.7V126.9z"/>
		<path class="st0" d="M116.6,121v7.2h-1.7V121H116.6z"/>
		<path class="st0" d="M119.5,122.4v1.5h2.4v1.3h-2.4v1.6h2.7v1.4h-4.5V121h4.5v1.4H119.5z"/>
		<path class="st0" d="M127,128.2l-1.6-2.7H125v2.7h-1.7V121h3c0.6,0,1.1,0.1,1.4,0.3c0.4,0.2,0.7,0.5,0.9,0.8
			c0.2,0.3,0.3,0.7,0.3,1.2c0,0.5-0.1,1-0.4,1.3s-0.7,0.6-1.3,0.8l1.7,2.8H127z M125,124.3h1.1c0.3,0,0.6-0.1,0.8-0.2
			s0.2-0.4,0.2-0.7c0-0.3-0.1-0.5-0.2-0.7c-0.2-0.2-0.4-0.2-0.8-0.2H125V124.3z"/>
		<path class="st0" d="M133.5,121v4.2c0,0.5,0.1,0.8,0.3,1.1c0.2,0.3,0.5,0.4,0.9,0.4s0.7-0.1,0.9-0.4c0.2-0.3,0.3-0.6,0.3-1.1V121
			h1.7v4.2c0,0.7-0.1,1.3-0.4,1.7c-0.3,0.5-0.6,0.8-1.1,1.1c-0.5,0.2-1,0.4-1.6,0.4s-1.1-0.1-1.5-0.3c-0.4-0.2-0.8-0.6-1-1.1
			c-0.3-0.5-0.4-1-0.4-1.7V121H133.5z"/>
		<path class="st0" d="M142.6,128.2l-1.6-2.7h-0.4v2.7h-1.7V121h3c0.6,0,1.1,0.1,1.4,0.3s0.7,0.5,0.9,0.8c0.2,0.3,0.3,0.7,0.3,1.2
			c0,0.5-0.1,1-0.4,1.3s-0.7,0.6-1.3,0.8l1.7,2.8H142.6z M140.6,124.3h1.1c0.3,0,0.6-0.1,0.8-0.2s0.2-0.4,0.2-0.7
			c0-0.3-0.1-0.5-0.2-0.7c-0.2-0.2-0.4-0.2-0.8-0.2h-1.1V124.3z"/>
		<path class="st0" d="M150.8,125.2c0.3,0.3,0.4,0.7,0.4,1.1c0,0.6-0.2,1.1-0.6,1.4c-0.4,0.3-1,0.5-1.8,0.5h-3.4V121h3.3
			c0.7,0,1.3,0.2,1.7,0.5c0.4,0.3,0.6,0.8,0.6,1.4c0,0.4-0.1,0.8-0.3,1.1c-0.2,0.3-0.5,0.5-0.9,0.6
			C150.1,124.6,150.5,124.8,150.8,125.2z M147.1,124h1.1c0.6,0,0.9-0.3,0.9-0.8s-0.3-0.8-0.9-0.8h-1.1V124z M149.3,126
			c0-0.3-0.1-0.5-0.3-0.6s-0.4-0.2-0.7-0.2h-1.2v1.6h1.2C149,126.8,149.3,126.6,149.3,126z"/>
		<path class="st0" d="M156.5,126.9h-2.7l-0.4,1.3h-1.8l2.6-7.2h2l2.6,7.2H157L156.5,126.9z M156.1,125.6l-0.9-2.7l-0.9,2.7H156.1z"
			/>
		<path class="st0" d="M161.2,121v7.2h-1.7V121H161.2z"/>
		<path class="st0" d="M168.8,128.2h-1.7l-2.9-4.4v4.4h-1.7V121h1.7l2.9,4.5V121h1.7V128.2z"/>
	</g>
	<g>
		<path class="st1" d="M48.7,102.7v-3.2c-0.1-0.1-0.2-0.2-0.3-0.4c0-0.1,0-0.1,0-0.2c0-0.1,0.2-0.2,0.3-0.3v-0.4c0,0-0.1,0-0.1,0
			c0,0,0.1-0.1,0.1-0.1v-0.9H48C48,97.4,48,97.5,48,97.6c0,0-0.1,0.1-0.1,0.1c-0.1,0.1-0.1,0.2,0,0.3c-0.1,0-0.2,0.1-0.3,0
			c-0.2,0-0.3,0-0.4,0.1c-0.1,0.2-0.4,0.2-0.6,0.2c-0.2,0-0.2,0-0.2-0.2c0-0.2-0.1-0.3-0.3-0.3c-0.1,0-0.2,0-0.3,0
			c-0.2,0-0.4,0-0.5-0.1c0,0-0.1-0.1-0.1-0.1c-0.4-0.1-0.8-0.3-1.3-0.2c-0.1,0-0.3,0-0.3-0.1c-0.1-0.1-0.1-0.1-0.3-0.1
			c-0.1,0-0.1,0-0.2,0h-4.5v2.9c0.1,0.1,0.2,0.1,0.3,0.1c0.1,0,0.2,0,0.2,0c0.2,0.1,0.3,0.1,0.5,0c0,0,0.1,0,0.1,0
			c0,0.1,0,0.1,0,0.2c-0.2,0.1-0.4,0.2-0.6,0.2c-0.1,0-0.2,0-0.2,0c-0.1,0-0.2,0-0.2-0.1v0.6h5.4c-0.4,0.9-1,1.5-1.7,2
			c-0.7,0.4-1.5,0.7-2.4,0.7c-1.6,0-2.9-0.4-3.7-1.3c-0.2-0.2-0.4-0.5-0.6-0.8c0,0-0.1,0-0.1,0c-0.2,0-0.4,0-0.5,0.2c0,0,0,0,0,0.1
			c0,0.1,0,0.2-0.2,0.2c-0.1,0-0.2,0-0.3,0c-0.3,0-0.7-0.1-0.8-0.4c0,0,0-0.1,0-0.1c0.2-0.1,0.3-0.2,0.5-0.3c0.1,0,0.2-0.1,0.3-0.2
			c0.2-0.2,0.4-0.4,0.6-0.6c0,0,0,0,0,0c-0.2-0.6-0.3-1.2-0.3-2c0-1.5,0.4-2.7,1.2-3.6c0.8-0.9,1.8-1.3,3.2-1.3c0,0,0.1,0,0.1,0
			c0.1,0,0.2-0.1,0.3-0.1c0.5,0,0.9,0.1,1.3,0.4c0,0,0,0,0,0c0.1,0,0.2,0.1,0.3,0.1c0.6,0.3,1,0.7,1.3,1.3h1.7c0,0,0,0,0,0
			c0,0,0,0,0.1,0h3.2c-0.1,0-0.1-0.1-0.2-0.1c0.2-0.2,0.3-0.2,0.4,0c0,0.1,0.1,0.1,0.2,0.1h0.3c-0.3-1.6-0.9-2.9-1.9-4
			c-0.1,0-0.1,0-0.2,0c-0.2,0.1-0.4,0-0.6,0c-0.1,0-0.2,0-0.3,0c-0.1,0-0.2,0.1-0.1,0.2c0.1,0.2,0.1,0.3,0.1,0.5c0,0,0,0.1,0.1,0.1
			c0.3,0,0.6,0.1,0.9,0.2c0,0,0.1,0,0.1,0c0.1,0,0.2,0,0.3,0.1c0,0.1,0,0.2,0.1,0.2c0,0.1,0,0.2,0.1,0.2c0.1,0.2,0.1,0.2-0.1,0.3
			c-0.1,0-0.2,0.1-0.2,0.1c-0.1,0-0.1-0.1-0.1-0.2c0-0.1,0-0.2,0-0.2c-0.1-0.1-0.2,0-0.3,0c-0.1,0-0.1,0.1-0.2,0.1
			c-0.1,0.1-0.2,0.1-0.2,0c-0.1-0.2-0.2-0.3-0.3-0.5c0,0-0.1-0.1-0.1-0.1c0-0.1-0.1-0.2-0.3-0.2c-0.2-0.1-0.5-0.1-0.7-0.3
			c0.1-0.1,0.1-0.1,0.2-0.2c0.1-0.1,0.1-0.2,0.1-0.3c-0.1-0.1-0.1-0.2-0.1-0.3c0-0.1,0.1-0.2,0.2-0.3c0.1-0.1,0.2-0.1,0.4,0
			c0.1,0.1,0.3,0.2,0.4,0.1c0.2-0.1,0.3-0.1,0.4,0c-0.2-0.1-0.3-0.3-0.5-0.4c-1.6-1.2-3.7-1.8-6.2-1.8c-2,0-3.7,0.4-5.2,1.3
			c-1.5,0.8-2.6,2-3.4,3.5c-0.8,1.5-1.2,3.2-1.2,5.2s0.4,3.7,1.2,5.2c0.8,1.5,2,2.7,3.4,3.5c1.5,0.8,3.2,1.3,5.2,1.3
			c2.3,0,4.3-0.6,5.8-1.7C46.9,105.8,48,104.4,48.7,102.7z M41.2,99.1c0.1,0,0.1,0,0.2-0.1c0.1,0,0.2,0,0.2-0.2c-0.1,0-0.1,0-0.2,0
			c-0.1,0-0.2,0-0.3-0.1c-0.1-0.1-0.1-0.2,0-0.2c0.1,0,0.2,0,0.3-0.1c0.4-0.1,0.8,0,1.1-0.2c0.1-0.1,0.2,0,0.2,0.1
			c0.1,0.1,0.1,0.2,0.3,0.2c0.3,0,0.6,0,0.8-0.2c0.1-0.1,0.3-0.2,0.6-0.2c0.1,0,0.2,0,0.2,0c0.2-0.1,0.3,0,0.3,0.1
			c0,0.1,0.1,0.1,0.1,0.1c0,0,0.1,0.1,0.1,0.1c0.1,0.1,0.1,0.2,0,0.3c-0.1,0.1-0.1,0.1-0.3,0.1c-0.1,0-0.3,0-0.4,0
			c-0.1,0-0.2-0.1-0.4-0.1c-0.1,0.2-0.4,0.2-0.6,0.2c-0.2,0-0.5,0-0.7,0.2c-0.1-0.1-0.1-0.1-0.1-0.1c-0.1-0.1-0.2-0.2-0.3-0.2
			c-0.2,0-0.3,0-0.5,0c-0.2,0-0.2,0.1-0.1,0.2c0.1,0.1,0,0.2-0.1,0.2c-0.1,0.1-0.5,0.2-0.6,0.1C41.2,99.3,41.1,99.1,41.2,99.1z
			 M41.3,100.5c0-0.1,0.1-0.2,0.2-0.2c0.1,0,0.2,0.1,0.3,0.2c0,0.1-0.1,0.1-0.2,0.1C41.4,100.7,41.3,100.6,41.3,100.5z M45.6,103.4
			c0.1-0.1,0.3-0.1,0.5-0.1c-0.2,0.1-0.3,0.2-0.4,0.3C45.6,103.5,45.5,103.5,45.6,103.4z M44.9,93.9C44.9,93.9,44.9,93.9,44.9,93.9
			C44.9,93.9,44.8,93.9,44.9,93.9C44.8,93.9,44.8,93.9,44.9,93.9C44.9,93.9,44.9,93.9,44.9,93.9z M41.9,90.5
			c0.1-0.2,0.4-0.4,0.6-0.6c0.1-0.1,0.3-0.1,0.4,0c0.1,0.1,0.2,0.3,0.1,0.3c-0.2,0.3-0.5,0.5-0.9,0.6c-0.2,0.1-0.3,0.1-0.3,0.3
			c-0.1,0-0.2,0-0.3,0c0,0,0,0-0.1,0c-0.2,0-0.2-0.1-0.1-0.2c0,0,0.1-0.1,0.1-0.1C41.7,90.8,41.8,90.6,41.9,90.5z M37.4,91
			c-0.1,0-0.2,0.1-0.3,0.1C37.2,91,37.2,91,37.4,91z M38.3,91.2c0-0.1,0.2-0.3,0.3-0.3c0.1,0,0.3,0.2,0.3,0.3c0,0.1-0.1,0.2-0.3,0.2
			C38.4,91.4,38.2,91.3,38.3,91.2z M40.4,91.9c0,0-0.1,0-0.2-0.1c0-0.1,0.1-0.1,0.1-0.2c0.1-0.1,0.2-0.2,0.4-0.2
			c0.1,0,0.1,0.1,0.1,0.1C40.9,91.8,40.6,92,40.4,91.9z M39.1,93.2c0.1,0,0.2,0,0.3,0.1c-0.1,0-0.2,0-0.3,0
			C39,93.3,39,93.2,39.1,93.2z M43.3,93.4c-0.1,0-0.1-0.1-0.2-0.2c-0.1-0.2-0.4-0.3-0.6-0.3c-0.2,0-0.4,0-0.6-0.1
			c-0.2,0.1-0.4,0.2-0.5,0.3c-0.1,0-0.3-0.1-0.3-0.1c0-0.2,0-0.4,0-0.6c0-0.1,0.1-0.2,0.3-0.2c0.2,0,0.3,0,0.4-0.1
			c0.1,0,0.2-0.1,0.2-0.1c0.3,0,0.6,0,0.9,0c0,0,0.1,0,0.1,0c0.4,0.1,0.6,0.4,0.8,0.7c0,0.1,0,0.2,0,0.2c0,0.1-0.1,0.2-0.1,0.3
			C43.6,93.4,43.5,93.4,43.3,93.4z M33.9,94.3c0,0,0-0.1,0-0.1c0.1-0.1,0.3-0.2,0.5-0.1c0,0,0.1,0,0.1,0.1c0,0,0,0,0,0.1
			c-0.1,0.1-0.2,0.1-0.4,0.2C34,94.4,33.9,94.3,33.9,94.3z M32.8,95.3C32.8,95.3,32.8,95.3,32.8,95.3C32.8,95.3,32.8,95.3,32.8,95.3
			C32.8,95.3,32.8,95.3,32.8,95.3C32.8,95.3,32.8,95.3,32.8,95.3z M31,95.3c0-0.1,0.1-0.1,0.3-0.1c0.2,0,0.4,0.1,0.3,0.2
			c0,0.1-0.1,0.1-0.3,0.1C31.1,95.5,31,95.4,31,95.3z M32.6,97.8c0-0.1,0.2-0.2,0.3-0.2c0.1,0,0.2,0.1,0.3,0.2
			c0.1,0.2,0,0.5-0.3,0.6c-0.1,0.1-0.3,0-0.3-0.1c0-0.1,0-0.2-0.1-0.2C32.6,98,32.6,97.9,32.6,97.8z M29.8,99
			c-0.2-0.2-0.2-0.3-0.1-0.5c0.1-0.2,0.4-0.3,0.7-0.3c0.2,0,0.3,0,0.4,0.2c0.1,0.1,0.1,0.3,0,0.4c-0.1,0.1-0.3,0.2-0.4,0.3
			C30.1,99.1,29.9,99.1,29.8,99z M31.1,99.4c0.1-0.2,0.2-0.2,0.4-0.1c0,0,0.1,0.1,0.1,0.1c0,0-0.1,0.1-0.1,0.1
			C31.3,99.5,31.2,99.4,31.1,99.4z M44.2,104.3c0,0,0.1,0,0.1-0.1c0.1,0,0.2-0.1,0.2,0c0,0.1,0,0.1-0.1,0.2
			C44.3,104.5,44.2,104.4,44.2,104.3z"/>
		<path class="st1" d="M55.5,89.2c0,0.2-0.1,0.2-0.3,0.3c-0.1,0-0.1,0-0.2,0c-0.3,0.1-0.6,0-0.8-0.1c-0.2-0.1-0.2-0.1-0.4,0
			c-0.1,0-0.2,0.1-0.2,0c-0.1,0-0.1-0.1-0.1-0.2c0,0,0-0.1,0-0.1c0-0.1,0.1-0.2,0.2-0.2h-2.5v10.5c0,0,0,0,0,0
			c0.1,0,0.2,0.1,0.2,0.2c0,0.1,0.1,0.2,0,0.3c0,0.1-0.1,0.1-0.2,0.1c-0.1,0-0.1,0-0.1,0v8.5h3.4c0,0,0.1-0.1,0.1-0.1
			c0.2,0,0.3,0.1,0.5,0.1h7.6c-0.1,0-0.1,0-0.2-0.1c-0.2-0.1-0.4-0.2-0.5-0.3c-0.1-0.1-0.2-0.2-0.4-0.2c-0.1,0-0.3-0.1-0.4-0.2
			c-0.1-0.1-0.2-0.1-0.3-0.1c-0.1,0-0.2,0-0.3-0.1c0,0-0.1-0.1-0.1-0.1c-0.2-0.1-0.3-0.2-0.5-0.4c-0.2-0.2-0.5-0.4-0.7-0.4
			c-0.2,0-0.3-0.1-0.5-0.2c-0.1,0-0.2-0.1-0.2-0.2c0,0,0-0.1,0-0.2c0,0,0.1-0.1,0.1-0.1c0.1,0,0.2,0,0.3,0c0.1,0,0.2,0,0.2,0.1
			c0.2,0.3,0.5,0.4,0.7,0.5c0,0,0,0,0,0c0.3,0.2,0.6,0.3,1,0.4c0.2,0,0.4,0.1,0.6,0.4c0.1,0.1,0.2,0.2,0.4,0.2
			c0.1,0,0.2,0.1,0.4,0.2c0.2,0.2,0.5,0.4,0.8,0.3c0.2,0,0.4,0,0.5,0.1v-4.2h-7.2v-3.5h6.3v-4.1h-5.7c0,0.1,0,0.1-0.1,0.2
			c-0.1,0.1-0.3,0.1-0.4,0.2c0,0,0,0,0,0c0,0,0,0,0,0c-0.4,0-0.7-0.2-0.9-0.3c-0.1-0.1-0.2-0.2-0.1-0.3c0.2-0.1,0.2-0.3,0.2-0.5
			c0-0.1,0.1-0.3,0.1-0.4c0-0.1,0.2-0.2,0.4-0.2c0.1,0,0.1,0,0.2,0v-1.9h7.2v-4.4h-8.5C55.4,88.9,55.5,89,55.5,89.2z M54.5,108.1
			c-0.1,0-0.2,0-0.3-0.1c-0.1-0.1-0.1-0.1,0-0.2c0.1-0.1,0.3-0.1,0.5,0C54.8,107.9,54.6,108,54.5,108.1z M57,107.6
			c0,0.1-0.1,0.2-0.1,0.3c0,0,0,0,0,0c-0.1,0.1-0.3,0.1-0.3,0c0,0,0-0.1,0-0.2c0-0.2,0.1-0.2,0.3-0.3c0,0,0,0,0,0
			C56.9,107.4,57,107.5,57,107.6z M53.4,107.4C53.4,107.4,53.3,107.4,53.4,107.4c-0.1-0.1-0.1-0.1,0-0.2
			C53.5,107.3,53.5,107.4,53.4,107.4z M54.3,105.7C54.3,105.7,54.3,105.7,54.3,105.7c0.1-0.1,0.1,0,0.1,0
			C54.4,105.7,54.4,105.7,54.3,105.7C54.3,105.7,54.3,105.7,54.3,105.7z M60.4,105.7c0.1,0.1,0.3,0.2,0.5,0.3
			c0.1,0.1,0.2,0.2,0.2,0.3c0,0.1-0.1,0.2-0.2,0.2c-0.2,0-0.4,0-0.6,0.1c-0.1,0-0.2-0.1-0.2-0.1c0-0.2-0.1-0.3-0.3-0.4
			c-0.2-0.1-0.1-0.2,0.1-0.2c0.1,0,0.2-0.1,0.3-0.2C60.2,105.6,60.3,105.6,60.4,105.7z M57.7,105.7c-0.1,0.2-0.1,0.3-0.1,0.5
			c0,0.1,0,0.2,0,0.4c0,0.1-0.1,0.2-0.2,0.2c-0.1,0-0.1-0.1-0.1-0.2c0-0.1,0-0.2,0-0.3c0-0.2,0-0.3-0.1-0.5c-0.1-0.1-0.1-0.3,0-0.4
			C57.3,105.5,57.5,105.6,57.7,105.7z M52.7,104.6C52.7,104.6,52.7,104.6,52.7,104.6c-0.1,0-0.1,0-0.1,0
			C52.6,104.6,52.6,104.6,52.7,104.6C52.7,104.6,52.7,104.6,52.7,104.6z M51.7,104.3c-0.1,0.1-0.2,0.1-0.4,0.1
			c-0.1-0.1-0.1-0.2,0.1-0.3C51.6,104.1,51.6,104.2,51.7,104.3z M54.4,100.7c0.1,0.1,0.1,0.3,0.2,0.4c0,0.3,0.1,0.6,0,0.8
			c-0.1,0.2-0.1,0.4-0.1,0.7c0,0.2-0.1,0.4-0.2,0.5c-0.1,0.1-0.3,0.1-0.4-0.1c0,0-0.1-0.1-0.1-0.1c-0.1-0.1-0.2-0.2-0.3-0.3
			c-0.1,0-0.1-0.1-0.2-0.1c0,0,0-0.1,0-0.2c0,0,0,0,0,0c-0.1-0.2-0.1-0.4-0.1-0.6c0-0.1,0-0.4,0-0.6c0-0.2,0.1-0.3,0.2-0.4
			C53.6,100.4,54.1,100.5,54.4,100.7z M53.1,96c-0.1,0.1-0.1,0.1-0.1,0.1c0,0-0.1-0.1,0-0.1C53,96,53,96,53.1,96
			C53,96,53.1,96,53.1,96z M55.1,95.7c0,0,0,0.1,0,0.2c0,0-0.1,0-0.1,0c-0.1-0.1-0.2-0.2-0.2-0.3c0,0,0-0.1,0-0.1
			c0-0.1,0.1-0.2,0.1-0.1C54.9,95.5,55,95.6,55.1,95.7z M53.3,95.2c0.1,0.1,0.1,0.2,0,0.4c-0.1-0.1-0.2-0.2-0.2-0.3
			C53.1,95.1,53.2,95.1,53.3,95.2z M52.2,92.1c0.1,0,0.1,0.2,0.2,0.3c0.1,0.1,0.1,0.2,0.2,0.3C52.2,92.6,52.1,92.4,52.2,92.1z
			 M53.8,93.1c0,0,0,0.1,0,0.1c-0.1,0-0.1,0-0.2,0c0,0-0.1-0.1-0.1-0.1C53.4,93,53.3,93,53.1,93c-0.1,0-0.3,0-0.3-0.1
			c0-0.1,0-0.2,0.1-0.2c0.2-0.1,0.3-0.2,0.4-0.3c0,0,0.1,0,0.1-0.1c0,0,0.1,0,0.1,0c0.1,0.1,0.2,0.2,0.1,0.4
			C53.6,92.9,53.6,93,53.8,93.1z M61,91.7c-0.1,0.2-0.1,0.3,0,0.5c0.1,0.2,0,0.3-0.1,0.3c-0.1,0-0.2,0-0.3-0.1c-0.1,0-0.2,0-0.3,0
			c0,0-0.1,0.2-0.1,0.3c-0.1,0.2-0.2,0.3-0.3,0.1c-0.1-0.1-0.2-0.3-0.3-0.5c-0.1-0.1,0-0.3,0.1-0.4c0.1-0.1,0.2-0.2,0.3-0.1
			c0.2,0.1,0.3,0,0.4-0.2c0-0.1,0.1-0.1,0.1-0.2c0-0.1,0.1-0.1,0.1-0.2c0.1-0.1,0.3-0.2,0.5-0.3C61.1,91.2,60.9,91.4,61,91.7z"/>
		<path class="st1" d="M97.5,108.5C97.5,108.5,97.5,108.6,97.5,108.5c2.1-0.1,3.8-0.8,5.2-1.9c1-0.8,1.7-1.8,2.3-2.9c0,0,0,0,0,0
			c0,0,0,0,0,0c0.1-0.2,0.2-0.5,0.3-0.7c0,0,0,0,0,0c-0.1,0,0-0.2-0.1-0.2c0,0,0,0,0-0.1c0,0,0.1,0,0.1,0c0,0.1,0,0.1,0,0.2
			c0.2-0.5,0.4-1.1,0.5-1.7h-5.7c-0.3,0.8-0.8,1.4-1.5,1.8c-0.7,0.4-1.4,0.7-2.3,0.7c-1.2,0-2.2-0.5-2.9-1.4
			c-0.2-0.3-0.4-0.6-0.6-0.9c0,0,0,0,0,0c-0.1,0-0.1,0.1-0.2,0.2c-0.2,0.2-0.3,0.5-0.5,0.7c-0.2,0.3-0.5,0.5-0.7,0.8
			c-0.1,0.2-0.2,0.2-0.4,0.3c0,0-0.1,0-0.2,0c-0.1,0.1-0.1,0.1-0.2,0.2c-0.2,0.2-0.3,0.4-0.4,0.7c0,0.1-0.1,0.3-0.2,0.3
			c-0.2,0.1-0.4,0.3-0.6,0.4c-0.1,0.1-0.2,0-0.2-0.1c-0.1-0.1-0.2-0.3-0.3-0.4c-0.2-0.1-0.2-0.4-0.2-0.6c0-0.1,0-0.2-0.1-0.2
			c-0.1-0.2-0.1-0.3,0.1-0.4c0,0,0.1-0.1,0.2-0.1c0,0.1,0.1,0.1,0.1,0.1c0.2,0.4,0.3,0.4,0.6,0.2c0.1-0.1,0.2-0.1,0.3-0.1
			c0.2,0,0.4,0,0.6-0.3c0.1-0.2,0.2-0.4,0.4-0.6c0.1-0.1,0.1-0.2,0.2-0.2c0.2-0.2,0.4-0.3,0.5-0.5c0.3-0.4,0.6-0.7,0.8-1.1
			c0,0,0.1-0.1,0.1-0.1c-0.2-0.6-0.3-1.2-0.3-2c0-1.5,0.4-2.7,1.1-3.6c0.7-0.9,1.7-1.3,2.9-1.3c0.9,0,1.6,0.2,2.3,0.6
			c0.7,0.4,1.2,1,1.5,1.8h0.8c0-0.1,0-0.2,0-0.3c0.1,0,0.2,0,0.3,0c0,0.1,0,0.2,0.1,0.3h4.7c-0.3-1.5-0.9-2.8-1.7-3.9
			c-0.8-1.1-1.9-2-3.2-2.6c-1.1-0.5-2.4-0.8-3.8-0.9c0,0,0,0,0,0c0,0,0,0,0,0c-0.2,0-0.4,0-0.7,0c-1.4,0-2.7,0.2-3.8,0.7
			c0,0,0,0,0.1,0c0.1,0.1,0.2,0.1,0.1,0.3c-0.1,0-0.2,0-0.3,0c-0.1,0-0.2-0.1-0.2-0.1c0,0,0,0,0,0c-0.3,0.1-0.7,0.3-1,0.5
			c-1.4,0.8-2.6,2-3.4,3.5s-1.2,3.2-1.2,5.2s0.4,3.7,1.2,5.2c0.3,0.6,0.7,1.1,1.1,1.6c0,0,0,0,0,0c0.1,0,0.2,0,0.2-0.1
			c0.2,0,0.2,0.1,0.2,0.4c-0.1-0.2-0.2-0.2-0.4-0.1c0.1,0.1,0.2,0.2,0.2,0.3c0,0,0,0,0-0.1c0,0.1,0.1,0.1,0.1,0.1c0,0,0,0,0,0
			c0.5,0.5,1.1,1,1.8,1.4c1.5,0.8,3.1,1.3,5.1,1.3c0.3,0,0.5,0,0.8-0.1C97.3,108.5,97.4,108.5,97.5,108.5z M102.2,102L102.2,102
			L102.2,102L102.2,102z M102.6,102.7c0.1,0,0.2,0.1,0.3,0.1c0-0.1,0-0.1,0.1-0.2c0,0,0,0,0,0c0,0,0,0,0,0c-0.1,0-0.2,0-0.1-0.2
			c0,0.1,0.1,0.1,0.1,0.2c0,0,0,0,0,0c0,0,0,0,0,0l0,0c0,0,0,0,0,0c0.1,0,0.1,0.1,0.2,0.1C102.9,103,102.8,103,102.6,102.7z
			 M102,103.3c0.1,0,0.1,0.1,0.1,0.2C102,103.5,102,103.5,102,103.3z M104.6,103.5C104.6,103.5,104.6,103.4,104.6,103.5
			c0.1-0.1,0.1,0,0.1,0C104.7,103.5,104.7,103.6,104.6,103.5C104.6,103.6,104.6,103.5,104.6,103.5z M104.3,93.4
			c0.2,0.2,0.2,0.2,0.4,0.1c0,0,0.1,0,0.2,0c0.1,0.1,0.1,0.2,0.1,0.3c-0.1,0.1-0.1,0.1-0.1,0.2c0,0.1,0,0.1,0.1,0.2
			c0.2,0.1,0.3,0.2,0.4,0.3c-0.1,0-0.2,0-0.4,0c0,0.2,0,0.3,0,0.5c-0.4,0-0.8,0-1.2,0c-0.1-0.1-0.1-0.2-0.1-0.4
			c0-0.3,0.1-0.5,0.2-0.7c0.1-0.1,0.2-0.2,0.2-0.4c0-0.1,0.1-0.2,0.2-0.2C104.1,93.2,104.2,93.3,104.3,93.4z M103.7,93
			C103.7,93,103.7,93.1,103.7,93C103.7,93.1,103.7,93.1,103.7,93C103.7,93.1,103.7,93.1,103.7,93C103.7,93,103.7,93,103.7,93
			C103.6,93,103.6,93,103.7,93C103.7,93,103.7,93,103.7,93z M96.3,89.6c0.1,0,0.1,0,0.1,0.1C96.3,89.7,96.3,89.6,96.3,89.6z
			 M97.9,89.6c0,0,0-0.1,0.1-0.1c0.1,0,0.2,0.1,0.2,0.2c0,0-0.1,0.1-0.1,0.1C98,89.9,98,89.8,97.9,89.6z M97.9,89.9
			C97.9,89.9,97.9,89.9,97.9,89.9C97.9,89.9,98,90,97.9,89.9C98,90,98,90,97.9,89.9C97.9,90,97.9,90,97.9,89.9z M93.8,90.3
			c0.1-0.1,0.1-0.1,0.2-0.1c0.1,0,0.2,0,0.2,0.1c0,0-0.1,0.1-0.1,0.1C94,90.4,93.9,90.3,93.8,90.3z M94.8,90.5
			c0-0.1,0.1-0.2,0.2-0.2c0.1,0,0.2,0,0.2,0.1c0,0.1-0.1,0.2-0.2,0.1C94.9,90.6,94.8,90.5,94.8,90.5z M97.2,91.7
			c-0.1-0.2-0.3-0.3-0.6-0.3c-0.2-0.1-0.4-0.2-0.6-0.2c-0.1,0-0.1-0.1-0.1-0.1c0-0.1,0.1-0.1,0.1-0.2c0.1-0.1,0.1-0.1,0.2-0.1
			c0.1-0.1,0.2-0.1,0.3,0c0.1,0.1,0.2,0.2,0.4,0.3c0.1,0.1,0.2,0.3,0.4,0.4c0.1,0,0.1,0.1,0.2,0.2c0,0.1,0,0.1-0.1,0.2
			C97.3,91.9,97.3,91.8,97.2,91.7z M100.9,91.6c0.1,0,0.3,0,0.4,0c0.3,0,0.3,0,0.4,0.2C101.3,91.9,101,91.9,100.9,91.6z M98.9,92.1
			C98.9,92.1,99,92,98.9,92.1c0.1-0.1,0.1,0,0.1,0.1C99,92.2,99,92.1,98.9,92.1z M99.3,92.2c0.1,0,0.2,0,0.3-0.1
			c0.2,0,0.3,0,0.4,0.1c0.2,0.1,0.1,0.3-0.1,0.3c-0.2,0-0.4,0-0.6,0c-0.1,0-0.1-0.1-0.2-0.2C99.1,92.3,99.2,92.2,99.3,92.2z
			 M95.4,92.5c0,0,0.1-0.2,0.1-0.2c0,0,0.1,0,0.2,0.1c0.1,0.1,0.1,0.2,0.2,0.3c0.1,0.1,0,0.2,0,0.3c0,0.1-0.1,0.1-0.2,0.1
			C95.5,93,95.4,92.8,95.4,92.5z M103.3,93.7c-0.3-0.1-0.5-0.3-0.7-0.5c-0.1-0.1,0.1-0.2,0.3-0.2c0.1,0,0.2,0.1,0.3,0.1
			c0.2,0.1,0.4,0.2,0.4,0.4c0,0.1,0,0.2-0.1,0.2C103.5,93.8,103.4,93.7,103.3,93.7z M89,95.9c0,0,0.1,0,0.1,0c0,0-0.1,0.1-0.1,0.1
			C89.1,96,89.1,96,89,95.9z M88.6,97c0-0.1,0-0.2,0-0.2c0-0.1,0.1-0.2,0.2-0.3c0,0,0.1,0,0.1,0c0,0,0.1,0.1,0.1,0.1
			c0,0.1-0.1,0.3-0.1,0.4c0,0.1-0.1,0.1-0.1,0.1C88.7,97.2,88.6,97.1,88.6,97z M90.3,103.2L90.3,103.2L90.3,103.2L90.3,103.2z
			 M90.1,102.6C90.1,102.6,90.1,102.6,90.1,102.6c0-0.1,0-0.2,0.1-0.2C90.2,102.5,90.2,102.6,90.1,102.6z M90,99C90,99,90,99,90,99
			C90.1,99,90.1,99,90,99C90.1,99,90.1,99,90,99C90.1,99,90,99,90,99z M90.3,99.3C90.3,99.3,90.3,99.3,90.3,99.3
			C90.3,99.3,90.3,99.3,90.3,99.3C90.3,99.3,90.3,99.4,90.3,99.3C90.3,99.4,90.3,99.3,90.3,99.3z M90.4,99.6
			C90.4,99.6,90.5,99.6,90.4,99.6c0.1-0.1,0.1,0,0.1,0C90.5,99.7,90.5,99.7,90.4,99.6C90.5,99.7,90.4,99.7,90.4,99.6z M90.7,100.6
			c0.1,0.3,0.1,0.3-0.1,0.5c-0.1,0.1-0.2,0.1-0.3,0.1c-0.1,0-0.2-0.1-0.3-0.3c0.2,0.1,0.2,0,0.3-0.1c0.1-0.1,0.2-0.2,0.3-0.4
			C90.6,100.4,90.6,100.5,90.7,100.6z M89.9,101.2c0,0-0.1-0.1-0.1-0.1c0.1-0.2,0-0.2-0.1-0.3c0,0,0,0,0,0c0.1,0.1,0.1,0.1,0.2,0.2
			c0,0,0,0.1,0,0.2C89.9,101.2,89.9,101.2,89.9,101.2z M87.8,101.7L87.8,101.7L87.8,101.7L87.8,101.7z M88.5,102.5
			c-0.1,0-0.1,0.1-0.2,0.1c0-0.3,0.1-0.5,0-0.7c0,0,0-0.1,0-0.2c0-0.2,0-0.4-0.1-0.6c-0.1-0.2,0-0.4,0-0.6c0,0,0,0,0.1,0
			c0.1,0.1,0.1,0.3,0.1,0.4c0.1,0.1,0.1,0.2,0.2,0.3c0,0,0,0,0,0c0,0.2,0.1,0.4,0.1,0.5c0.1,0.2,0.1,0.3,0.2,0.5
			c0.1-0.1,0.2-0.1,0.3-0.1c0,0.3-0.2,0.4-0.4,0.5C88.6,102.7,88.5,102.6,88.5,102.5z M90.4,102.6C90.4,102.6,90.4,102.6,90.4,102.6
			C90.4,102.6,90.4,102.6,90.4,102.6C90.4,102.6,90.4,102.7,90.4,102.6C90.4,102.7,90.4,102.6,90.4,102.6z M90,103.1
			C90,103.2,90,103.2,90,103.1c-0.1,0.1-0.1,0.1-0.1,0C89.9,103.1,89.9,103.1,90,103.1C90,103.1,90,103.1,90,103.1z M99.3,107.4
			C99.3,107.4,99.3,107.4,99.3,107.4c-0.1,0-0.1,0-0.1,0C99.2,107.3,99.2,107.3,99.3,107.4C99.3,107.3,99.3,107.3,99.3,107.4z
			 M102.4,105.9C102.4,105.9,102.4,105.9,102.4,105.9c-0.1,0-0.1,0.1-0.1,0.1c0,0,0,0,0-0.1C102.3,105.8,102.3,105.8,102.4,105.9
			C102.4,105.8,102.4,105.8,102.4,105.9z M101.7,106c0.1-0.1,0.1-0.3,0.3-0.4C101.9,105.8,101.8,105.9,101.7,106z M101.2,105.6
			c0,0,0,0.1,0,0.1c0,0,0,0.1-0.1,0.1c-0.1,0-0.2,0-0.3-0.2c0,0,0-0.1,0-0.1C101,105.6,101.1,105.6,101.2,105.6z M100.1,105.6
			C100.1,105.6,100.1,105.6,100.1,105.6C100.1,105.6,100.1,105.6,100.1,105.6C100.1,105.6,100.1,105.6,100.1,105.6
			C100.1,105.6,100.1,105.6,100.1,105.6z M97.1,105.4c0.1,0,0.2,0.1,0.2,0.2c0.1-0.1,0.1-0.1,0.3,0c-0.1,0.1-0.2,0.1-0.2,0.1
			c0,0,0,0,0,0c0,0,0,0,0,0.1c-0.1,0-0.1-0.1-0.2-0.1c-0.1,0-0.1-0.1-0.2,0c-0.1,0.1-0.2,0-0.3-0.1c-0.1-0.1,0-0.2,0.1-0.2
			C96.9,105.3,97,105.4,97.1,105.4z M93.4,105.4L93.4,105.4L93.4,105.4L93.4,105.4z M96,105.4C96,105.4,96,105.4,96,105.4
			C96,105.4,96,105.4,96,105.4C95.9,105.3,95.9,105.3,96,105.4C96,105.3,96,105.4,96,105.4z M94.1,105.3
			C94.1,105.3,94.1,105.3,94.1,105.3C94.1,105.3,94.1,105.3,94.1,105.3C94.1,105.4,94.1,105.4,94.1,105.3
			C94.1,105.3,94.1,105.3,94.1,105.3z M93.9,105.3c-0.2,0.1-0.2-0.1-0.3-0.1C93.7,105.1,93.8,105.2,93.9,105.3z M98.4,105.2
			C98.4,105.2,98.3,105.2,98.4,105.2c-0.1,0-0.1,0-0.1,0C98.3,105.1,98.3,105.1,98.4,105.2C98.3,105.1,98.4,105.2,98.4,105.2z
			 M97.2,105.1C97.2,105.1,97.2,105.1,97.2,105.1C97.2,105.1,97.2,105.1,97.2,105.1C97.2,105.1,97.2,105.1,97.2,105.1
			C97.2,105.1,97.2,105.1,97.2,105.1z M102.3,105C102.3,105,102.3,105,102.3,105c-0.1,0-0.1,0-0.1,0c0,0,0-0.1,0.1-0.1
			C102.3,104.9,102.3,105,102.3,105z M98.8,105.1c-0.2-0.1-0.2-0.1-0.1-0.4C98.7,104.8,98.8,104.9,98.8,105.1z M94.4,105
			C94.4,105,94.3,105.1,94.4,105c-0.1,0.1-0.1,0-0.2,0C94.3,104.9,94.3,104.9,94.4,105C94.3,104.9,94.4,104.9,94.4,105z M98.3,104.9
			L98.3,104.9L98.3,104.9L98.3,104.9z M100.5,104.5L100.5,104.5L100.5,104.5L100.5,104.5z M98.5,104.3
			C98.5,104.3,98.5,104.3,98.5,104.3C98.4,104.3,98.4,104.3,98.5,104.3C98.4,104.3,98.4,104.3,98.5,104.3
			C98.5,104.3,98.5,104.3,98.5,104.3z M104.3,103.7c0,0.1-0.1,0.2-0.1,0.1c0,0,0-0.1,0-0.1C104.2,103.6,104.2,103.7,104.3,103.7z
			 M93.3,103.8C93.3,103.8,93.2,103.9,93.3,103.8C93.2,103.9,93.2,103.9,93.3,103.8C93.2,103.8,93.2,103.8,93.3,103.8
			C93.2,103.8,93.3,103.8,93.3,103.8z M92.1,103.9c0,0,0-0.1,0.1-0.1c0,0.1,0,0.1,0,0.1C92.3,104,92.2,104,92.1,103.9
			C92.2,104,92.1,104,92.1,103.9z M93.5,104C93.5,103.9,93.5,103.9,93.5,104C93.5,103.9,93.5,104,93.5,104
			C93.5,104,93.5,104,93.5,104C93.5,104,93.5,104,93.5,104z M98,104.2C98,104.2,98.1,104.2,98,104.2c0.1,0.1,0,0.1,0,0.1
			C98,104.3,98,104.3,98,104.2C98,104.2,98,104.2,98,104.2z M90.5,104.6c0-0.1,0.1-0.2,0.1-0.3c0.1,0.1,0.1,0.1,0.1,0.2
			C90.6,104.6,90.6,104.7,90.5,104.6z M94.3,104.6C94.3,104.6,94.4,104.6,94.3,104.6C94.4,104.6,94.4,104.6,94.3,104.6
			C94.4,104.6,94.4,104.6,94.3,104.6C94.4,104.6,94.3,104.6,94.3,104.6z M94.5,104.4c0.1,0.1,0.2,0.2,0.2,0.2c0,0.1-0.1,0.2-0.2,0.2
			C94.5,104.7,94.5,104.5,94.5,104.4z M93.8,104.9C93.8,104.9,93.8,104.9,93.8,104.9C93.8,104.8,93.8,104.8,93.8,104.9
			C93.8,104.9,93.8,104.9,93.8,104.9C93.8,104.9,93.8,104.9,93.8,104.9z M90.5,105.2C90.5,105.2,90.5,105.2,90.5,105.2
			c0.1,0,0.2,0,0.2,0.1C90.6,105.4,90.6,105.3,90.5,105.2z M91.1,105.3c0.1-0.1,0.1,0,0.2,0C91.3,105.4,91.3,105.4,91.1,105.3z
			 M89.8,105.6c0.1-0.1,0.1-0.1,0.2,0.1C89.9,105.6,89.9,105.6,89.8,105.6z M91.5,105.5c-0.1-0.1,0-0.3,0.1-0.3c0.1,0,0.2-0.1,0.3,0
			c0.1,0,0.1,0.1,0.2,0.1c0.1-0.1,0.2-0.3,0.4-0.4c0,0,0.1-0.1,0.2-0.1c0.1,0.1,0.1,0.2,0.2,0.4c0,0.1,0,0.2-0.2,0.2
			c0-0.1,0-0.1,0-0.2c0,0,0,0-0.1-0.1c0,0.1,0,0.1-0.1,0.2c-0.1,0-0.2,0.1-0.3,0.1c-0.1,0-0.3,0-0.3,0.3c0,0,0,0,0,0
			C91.6,105.7,91.5,105.6,91.5,105.5z M95.8,106C95.8,106,95.8,105.9,95.8,106C95.8,105.9,95.9,105.9,95.8,106
			C95.9,106,95.9,106,95.8,106C95.8,106,95.8,106,95.8,106z M97,105.8c-0.2,0.3-0.2,0.3-0.4,0.3C96.7,105.9,96.9,105.9,97,105.8z
			 M97.3,106.6C97.3,106.6,97.3,106.6,97.3,106.6c0.1-0.1,0.2-0.1,0.2-0.1c0,0,0.1,0.1,0.1,0.1c0,0-0.1,0.1-0.1,0.1
			C97.4,106.7,97.4,106.7,97.3,106.6z M93.9,107.1C93.9,107,94,107,93.9,107.1C94,107,94,107.1,93.9,107.1
			C94,107.1,94,107.1,93.9,107.1C93.9,107.1,93.9,107.1,93.9,107.1z M93.7,107.3c0.1,0,0.1,0.2,0.2,0.3
			C93.6,107.5,93.6,107.5,93.7,107.3z M95.8,107.6c-0.1-0.1-0.1-0.2-0.1-0.4c0-0.1,0.1-0.2,0.1-0.2c0,0,0.1,0,0.1,0.1
			c0.1,0.1,0.1,0.1,0.2,0.2c0.1,0.1,0.1,0.3,0,0.3C96,107.7,95.9,107.7,95.8,107.6z M95.8,108c0.1,0.1,0.1,0.1,0.2,0.2
			c0,0,0,0,0,0.1C95.9,108.2,95.9,108.2,95.8,108z M96.8,108.1c0.1,0.1,0.2,0.1,0.2,0.2c0.1,0.1,0.1,0.2,0,0.2c-0.1,0-0.2,0-0.2-0.1
			C96.7,108.3,96.7,108.2,96.8,108.1z M95.3,108.4c0.1-0.1,0.1-0.1,0.2-0.1c0.1,0.1,0.1,0.1,0.1,0.3
			C95.4,108.6,95.3,108.6,95.3,108.4z"/>
		<path class="st1" d="M114,89.4c0.2,0.2,0.4,0.4,0.6,0.4c0.1,0,0.2,0,0.2,0.2c-0.2,0.1-0.3,0.3-0.5,0.3c-0.2,0-0.3,0-0.4,0.2
			c0,0,0,0-0.1,0c0-0.1,0.1-0.2,0.1-0.2c0.1-0.2,0.1-0.3-0.1-0.5c-0.2-0.2-0.4-0.5-0.6-0.7c-0.1-0.1-0.1-0.1-0.2-0.1c0,0,0,0,0,0
			h-4.8v5.2c0.1,0,0.2,0,0.3,0.1c0,0,0,0,0,0c0,0,0,0,0,0c0.1,0,0.1-0.1,0.2,0c0,0,0,0.1,0,0.1c-0.1,0.1-0.2,0-0.2,0c0,0,0,0,0,0
			c0,0,0,0,0,0l0,0c0,0,0,0,0,0c0,0.1-0.1,0.2-0.3,0.2v1.5c0.1,0,0.1,0,0.1,0c0,0,0.1,0.1,0.1,0.1c0,0-0.1,0.1-0.1,0.1
			c-0.1,0-0.1,0-0.1-0.1v1.4c0.1-0.1,0.1-0.1,0.2,0c-0.1,0.1-0.1,0.1-0.2,0v2c0-0.1,0.1-0.2,0.1-0.3c0-0.1,0.1-0.2,0.2-0.1
			c0.1,0.1,0.1,0.2,0.1,0.3c0,0.1-0.1,0.2-0.1,0.3c-0.1,0-0.2,0-0.3,0.1v3.6c0,0.1,0,0.1,0.1,0.2c0.1,0.1,0.1,0.3,0.1,0.5
			c0,0.3,0.1,0.5,0.3,0.7c0.1,0.2,0.2,0.3,0.3,0.5c0,0,0,0.1,0.1,0.2c-0.1-0.1-0.1-0.1-0.1-0.1c-0.2-0.2-0.3-0.4-0.5-0.6
			c-0.1-0.2-0.2-0.4-0.3-0.6v4.2h4.7c0.1,0,0.2-0.1,0.3-0.2c0.2-0.1,0.4-0.1,0.5,0c0,0.1,0,0.1,0.1,0.2h7v-4.4h-0.2c0,0,0,0,0,0
			c0,0,0,0,0,0c0,0,0,0,0,0c0,0,0,0,0,0h-6.9V103c-0.1,0-0.1,0-0.2,0c-0.1-0.2-0.3-0.3-0.5-0.4c-0.1-0.1-0.1-0.1-0.1-0.2
			c0-0.1,0.1-0.2,0.2-0.3c0.1,0,0.1,0,0.2,0c0.2,0,0.3,0.1,0.4,0.2v-1.6h6.3v-3.9c-0.1,0-0.2,0-0.3,0.1c0.1-0.1,0.2-0.1,0.3-0.2
			v-0.1h-6.3v-3.1c0-0.1,0-0.1,0-0.2c-0.1-0.3-0.2-0.4-0.4-0.3c0,0-0.1,0-0.1,0c-0.2,0.1-0.3,0-0.4-0.2c0-0.1-0.1-0.1-0.1-0.2
			c0.2,0.2,0.4,0,0.5-0.1c0.2-0.2,0.3-0.2,0.4,0c0,0.1,0.1,0.1,0.2,0.2c0.1-0.1,0.1-0.1,0.2-0.2c0.1-0.1,0.2,0,0.2,0.2
			c0,0.1,0,0.2,0,0.3c0,0.1,0,0.2-0.1,0.2c0,0-0.1,0-0.1,0.1c0,0,0.1,0.1,0.1,0.1c0,0,0,0,0,0.1h6.9v-4.4h-7.5c0,0,0,0,0,0
			C113.6,89.1,113.8,89.3,114,89.4z M111.2,105.3C111.2,105.3,111.2,105.3,111.2,105.3C111.2,105.3,111.2,105.3,111.2,105.3
			L111.2,105.3z M108.5,105.8c0.2,0.2,0.2,0.2,0.1,0.4C108.5,106.1,108.4,106.1,108.5,105.8z M113.6,105.7c0.1,0.1,0.2,0.1,0.2,0.2
			c0,0,0,0,0,0c-0.2,0-0.3,0-0.5,0C113.3,105.8,113.4,105.8,113.6,105.7z M110.6,106.7C110.7,106.7,110.7,106.7,110.6,106.7
			C110.7,106.7,110.7,106.7,110.6,106.7C110.7,106.7,110.7,106.7,110.6,106.7C110.7,106.7,110.6,106.7,110.6,106.7z M110.3,106.8
			C110.4,106.8,110.4,106.8,110.3,106.8C110.4,106.8,110.4,106.8,110.3,106.8C110.4,106.8,110.4,106.8,110.3,106.8
			C110.4,106.8,110.4,106.8,110.3,106.8z M115.5,108.2c0,0.2-0.1,0.3-0.2,0.3c-0.1,0-0.2-0.1-0.2-0.2c0-0.2,0.1-0.3,0.2-0.3
			C115.4,107.9,115.5,108.1,115.5,108.2z M119,107.7c0,0.1,0,0.1-0.2,0.1C118.8,107.7,118.9,107.7,119,107.7
			C119,107.7,119,107.7,119,107.7z M116.8,107.8c-0.1,0-0.2,0-0.2-0.2c0,0,0-0.1,0.1-0.1C116.8,107.5,116.8,107.6,116.8,107.8z
			 M119.9,107.4C119.9,107.4,119.9,107.4,119.9,107.4C119.8,107.4,119.8,107.4,119.9,107.4C119.8,107.3,119.9,107.3,119.9,107.4
			C119.9,107.4,119.9,107.4,119.9,107.4z M118.7,107.2C118.7,107.2,118.7,107.2,118.7,107.2C118.7,107.2,118.7,107.2,118.7,107.2
			C118.7,107.2,118.7,107.2,118.7,107.2C118.7,107.2,118.7,107.2,118.7,107.2z M109.2,107.2C109.2,107.2,109.2,107.2,109.2,107.2
			C109.1,107.3,109.1,107.2,109.2,107.2C109.1,107.2,109.1,107.2,109.2,107.2C109.1,107.2,109.2,107.2,109.2,107.2z M119.8,106.7
			c0,0.1,0,0.1-0.1,0.1c0,0,0,0,0,0C119.6,106.7,119.6,106.7,119.8,106.7C119.7,106.7,119.8,106.7,119.8,106.7z M111.8,106.3
			c0,0.3-0.3,0.4-0.5,0.6c0,0,0-0.1,0-0.1c0-0.1,0.1-0.1,0.1-0.2c0.1-0.2,0.1-0.2-0.1-0.2c-0.1,0-0.1-0.1-0.2-0.1
			c-0.1,0-0.1-0.1,0-0.2c0.1-0.1,0.2-0.1,0.3-0.2C111.5,106.1,111.5,106.3,111.8,106.3z M114.7,106.1c-0.1-0.1-0.3-0.2-0.5-0.2
			c0,0-0.1,0-0.1,0c0,0-0.1-0.1-0.1-0.1c0,0,0.1-0.1,0.2-0.1c0.2,0,0.3,0.1,0.5,0.1c0.2,0.1,0.2,0.1,0.1,0.3
			C114.8,106.1,114.7,106.1,114.7,106.1z M117.3,106C117.3,106,117.2,106.1,117.3,106c-0.1,0.1-0.1,0-0.2,0c0,0,0.1-0.1,0.1-0.1
			C117.2,105.9,117.3,106,117.3,106z M116.2,105.7c0,0.3-0.1,0.4-0.3,0.4c-0.1,0-0.2,0-0.4-0.1c-0.1,0-0.2-0.2-0.1-0.4
			c0.1-0.2,0.2-0.3,0.3-0.3C116,105.3,116.1,105.4,116.2,105.7z M111.7,105.3c0,0.1-0.1,0.2-0.1,0.2c-0.1,0-0.2-0.1-0.2-0.3
			c0-0.1,0.1-0.2,0.2-0.2C111.6,105,111.7,105.2,111.7,105.3z M114.5,104.9c0,0,0,0.1,0,0.1c-0.1,0-0.2,0-0.2-0.1
			C114.3,104.9,114.4,104.8,114.5,104.9z M110.5,105c0-0.1,0.1-0.1,0.2-0.2C110.7,105,110.7,105,110.5,105z M111.7,103.7
			C111.7,103.7,111.7,103.7,111.7,103.7C111.7,103.7,111.7,103.7,111.7,103.7C111.7,103.7,111.7,103.7,111.7,103.7
			C111.7,103.7,111.8,103.7,111.7,103.7z M109.6,103.1C109.6,103.2,109.6,103.2,109.6,103.1c-0.1,0.1-0.1,0-0.1,0c0,0,0,0,0-0.1
			C109.5,103.1,109.5,103,109.6,103.1C109.6,103.1,109.6,103.1,109.6,103.1z M110.4,102.6c0,0,0,0.1-0.1,0.1c0-0.1-0.1-0.1-0.1-0.2
			c0,0,0.1-0.1,0.1-0.1C110.4,102.5,110.4,102.5,110.4,102.6z M108.8,94C108.8,94,108.9,93.9,108.8,94c0.1,0,0.1,0,0.1,0
			C108.9,94,108.9,94,108.8,94C108.9,94,108.8,94,108.8,94z M109.9,93.8c0,0-0.1-0.1-0.1-0.2c0-0.1,0.1-0.2,0.1-0.2c0,0,0.1,0,0.2,0
			c0.1,0.1,0.2,0.3,0.3,0.4c0,0,0,0.1,0,0.1c0,0-0.1,0.1-0.1,0.1C110.1,94,110,93.9,109.9,93.8z M109.1,94.8c0,0,0.1-0.1,0.1-0.1
			c0,0.1,0.1,0.1,0.1,0.2c0,0-0.1,0.1-0.1,0.1C109.2,95,109.1,94.9,109.1,94.8z M109.6,97.6c0-0.2,0.1-0.3,0.2-0.4
			c0.2-0.1,0.3-0.2,0.3-0.5c0,0,0-0.1,0-0.1c0,0,0,0,0,0c0.1,0.2,0.1,0.3,0.2,0.5c0,0.1,0,0.2,0,0.2c0,0.2-0.1,0.3-0.1,0.5
			c0,0.1-0.1,0.2-0.2,0.2c-0.1,0-0.2,0-0.3,0.1c0,0-0.1,0-0.1,0c0,0-0.1-0.1-0.1-0.2C109.6,97.8,109.6,97.7,109.6,97.6z M114,97.8
			c0,0.1,0,0.2,0.1,0.3c0,0.1,0.1,0.1,0.1,0.2c0,0.1,0,0.1-0.1,0.1c-0.1,0-0.2,0-0.3-0.1c-0.1-0.1-0.1-0.2-0.1-0.3
			c0.1-0.1,0-0.2,0-0.4c0-0.1-0.1-0.3,0-0.4C113.9,97.3,114,97.5,114,97.8z M114.3,97.7C114.3,97.7,114.3,97.8,114.3,97.7
			c-0.1,0.1-0.1,0.1-0.3,0.1C114.1,97.7,114.2,97.7,114.3,97.7z M113,98.3c-0.1,0-0.2,0-0.3,0c-0.1,0-0.1,0-0.2,0
			c0,0-0.1-0.1-0.1-0.2c0,0,0.1-0.1,0.1-0.1c0.1,0,0.3,0,0.4,0.1C113,98.1,113,98.2,113,98.3z M111.3,97.6c-0.1,0.2-0.2,0.2-0.3,0
			c-0.1-0.2-0.2-0.3-0.3-0.3c-0.1,0-0.1-0.1-0.2-0.2c0-0.1,0-0.3,0-0.4c0.2-0.1,0.3,0,0.3,0.2c0,0.3,0,0.3,0.2,0.3c0,0,0.1,0,0.1,0
			C111.3,97.3,111.3,97.5,111.3,97.6z M108.6,98.5c0.1-0.2,0.4-0.3,0.1-0.6c0.1,0,0.1,0,0.1,0c0.1,0.1,0.2,0.2,0.3,0.1
			c0,0,0.1,0.1,0.1,0.1c0,0,0,0.1,0,0.1c-0.1,0.1-0.2,0.2-0.3,0.3C108.8,98.7,108.7,98.7,108.6,98.5z M110.4,98.8L110.4,98.8
			L110.4,98.8L110.4,98.8z M110.3,99.6c0.1-0.1,0.1-0.1,0.2-0.1c0.1,0,0.1,0.1,0.1,0.2c0,0.1-0.1,0.2-0.1,0.1
			C110.5,99.8,110.4,99.7,110.3,99.6z M110.8,99.6c0-0.1,0-0.1,0.1-0.1c0.1,0,0.1,0.1,0.1,0.2c0,0,0,0.1,0,0.1
			C110.9,99.8,110.8,99.7,110.8,99.6z M115.1,99.9C115.1,99.9,115.1,99.8,115.1,99.9c0.1-0.1,0.1,0,0.1,0
			C115.2,99.9,115.2,99.9,115.1,99.9C115.1,99.9,115.1,99.9,115.1,99.9z M110.8,102.3c-0.2-0.1-0.2-0.1-0.1-0.2
			C110.8,102.1,110.8,102.2,110.8,102.3z M110,101.7c0,0,0,0.1,0,0.1c-0.1,0-0.1,0-0.1-0.1C109.9,101.6,110,101.6,110,101.7z
			 M111.1,101c0.1,0.3,0,0.5-0.3,0.6c-0.1,0-0.3-0.1-0.4-0.1c-0.2-0.1-0.2-0.2-0.3-0.4c0-0.1,0-0.2,0.1-0.3c0.1-0.1,0.2-0.2,0.3-0.3
			c0.1-0.2,0.2-0.1,0.3,0C111,100.5,111,100.8,111.1,101z M118.7,100.1c0,0.1,0,0.2,0,0.3c-0.1,0-0.3,0-0.4,0c0,0-0.1-0.1-0.1-0.1
			c0.1-0.1,0.1-0.2,0.2-0.3C118.5,100,118.7,100,118.7,100.1z M118.2,99.6c0,0.1,0,0.3-0.1,0.3c-0.1,0.1-0.3,0.2-0.5,0.3
			c0,0-0.2,0-0.2,0c-0.3-0.1-0.5-0.2-0.6-0.5c0.4,0.1,0.4,0.1,0.8-0.2c0,0,0,0,0,0C117.8,99.3,118.2,99.4,118.2,99.6z M110.2,99.1
			C110.2,99,110.2,99,110.2,99.1c0.2,0.1,0.1,0.2,0,0.3C110.2,99.3,110.1,99.2,110.2,99.1z M111.9,99c0,0,0.1,0.1,0.1,0.1
			c0,0,0,0.1,0,0.1C111.9,99.2,111.9,99.2,111.9,99C111.9,99.1,111.9,99,111.9,99z M117.9,98.9c0,0,0,0.1,0,0.1
			c0,0.1-0.1,0.1-0.2,0.1c-0.1,0-0.2,0-0.2,0c-0.1-0.1-0.1-0.2,0.1-0.3c0,0,0.1,0,0.2,0C117.8,98.8,117.9,98.8,117.9,98.9z
			 M117.7,98.8c-0.1-0.1-0.2-0.1-0.3-0.4C117.6,98.5,117.7,98.5,117.7,98.8z M115.1,98.5c-0.1,0-0.2,0-0.2,0
			c-0.1,0.1-0.2,0.2-0.2,0.3c0.1,0,0.2,0,0.4-0.1c0,0.2-0.2,0.3-0.3,0.5c-0.2,0.2-0.3,0.2-0.5,0c0,0,0,0-0.1,0
			c-0.1,0-0.1,0.1-0.2,0.1c0-0.1,0-0.1,0-0.2c0-0.2,0.2-0.3,0.3-0.4c0.1-0.2,0.4-0.3,0.6-0.4c0.3-0.1,0.6,0,0.9-0.2c0,0,0,0,0.1,0
			c-0.1,0.1-0.2,0.1-0.3,0.2C115.4,98.5,115.3,98.5,115.1,98.5z M117.1,98.2C117,98.2,117,98.1,117.1,98.2c0-0.1,0-0.1,0-0.1
			C117.1,98.1,117.1,98.1,117.1,98.2C117.1,98.1,117.1,98.2,117.1,98.2z M119.9,98C119.9,98,119.9,98,119.9,98
			c-0.1,0.1-0.1,0.1-0.2,0.1c-0.1,0-0.1-0.1-0.2-0.1c0-0.1,0.1-0.1,0.2-0.1C119.8,97.9,119.8,97.9,119.9,98z M116.9,97.9
			c-0.1,0-0.2-0.1-0.2-0.3C116.8,97.7,116.8,97.7,116.9,97.9z M114.8,97.8c-0.2,0-0.3,0-0.2-0.2C114.7,97.6,114.7,97.7,114.8,97.8z
			 M116.3,97.1c0.1,0,0.1,0.2,0.1,0.3c-0.2-0.1-0.3-0.2-0.6-0.6C116,96.8,116.1,97,116.3,97.1z M113.1,96.5c0.1,0,0.2,0.1,0.3,0.2
			c0,0.1-0.1,0.2-0.1,0.3c0,0.1-0.1,0.1-0.1,0.1c0,0-0.1,0.1-0.1,0c-0.1-0.1-0.3-0.2-0.4-0.3c-0.1-0.1-0.1-0.3,0.1-0.3
			c0.1,0,0.2,0,0.3-0.1C113,96.5,113.1,96.5,113.1,96.5z M113.6,96c0,0.1-0.1,0.2-0.1,0.2c-0.1,0-0.1-0.1-0.1-0.2
			c0-0.1,0.1-0.2,0.2-0.2C113.5,95.9,113.6,95.9,113.6,96z M112.6,93.4c0.1,0.1,0.2,0.1,0.4,0.1c0.1,0.2,0.1,0.4,0.2,0.6
			c0.1,0.2,0,0.4-0.1,0.5c-0.2,0.1-0.3,0.2-0.5,0.2c-0.1,0.1-0.3,0-0.4,0.2c-0.1,0.1-0.2,0.2-0.3,0.2c-0.1,0.1-0.1,0.1-0.1,0.3
			c0.1,0.1,0.1,0.3,0.3,0.3c0.1,0,0.2,0.1,0.3,0.2c0.1,0.1,0.1,0.3,0,0.4c-0.2,0.1-0.3,0.2-0.5,0.2c-0.2,0-0.4,0.1-0.6,0.2
			c-0.1-0.1-0.1-0.2-0.2-0.3c0.1-0.2,0-0.3,0-0.4c-0.1-0.2-0.3-0.4-0.4-0.6c-0.1,0.1-0.1,0.1-0.2,0.1c-0.1-0.1-0.1-0.2-0.1-0.3
			c-0.1-0.2-0.1-0.3,0-0.5c0.1-0.2,0.2-0.2,0.4-0.1c0,0,0,0,0,0c0.1,0,0.2-0.1,0.2-0.3c0,0,0-0.1,0-0.1c-0.1,0.1-0.2,0.2-0.4,0.1
			c0.1-0.1,0.2-0.2,0.4-0.2c0,0,0,0,0,0c0.1,0,0.2,0,0.3,0c0.1-0.1,0.2-0.1,0.4,0c0.2,0.1,0.4,0,0.5-0.1c0.1,0,0.1-0.1,0.2-0.1
			c0.1-0.1,0.2-0.2,0.1-0.4c0-0.1,0-0.2,0-0.3C112.5,93.2,112.5,93.4,112.6,93.4z M109.2,93.3C109.2,93.3,109.2,93.4,109.2,93.3
			c-0.1,0.1-0.1,0-0.2-0.1C109.1,93.2,109.1,93.3,109.2,93.3z M110.4,89.3C110.4,89.3,110.4,89.3,110.4,89.3
			C110.4,89.3,110.5,89.3,110.4,89.3C110.5,89.3,110.5,89.4,110.4,89.3C110.4,89.4,110.4,89.3,110.4,89.3z M109,89.7
			C109,89.7,109,89.7,109,89.7c0.1,0,0.1,0,0.1,0.1c0,0,0,0.1-0.1,0.1C109,89.8,109,89.8,109,89.7z M111,90.8
			c-0.2-0.1-0.4-0.2-0.7-0.3c-0.1,0-0.3-0.1-0.4-0.2c-0.1,0-0.1-0.2-0.1-0.3c0.2-0.1,0.2,0,0.3,0.1c0.2,0.2,0.3,0.4,0.6,0.3
			c0.2-0.1,0.3,0.1,0.5,0.3C111.1,90.8,111,90.8,111,90.8z M119,92.1C119,92.1,119,92.1,119,92.1c-0.1,0.1-0.1,0-0.1-0.1
			C118.9,92,119,92,119,92.1z M115.7,91.9c0.1,0.1,0.1,0.2,0,0.3c-0.1,0-0.2-0.1-0.3-0.4C115.5,91.9,115.6,91.9,115.7,91.9z
			 M115.1,92c-0.2,0.1-0.3,0-0.4-0.1c0,0,0-0.1,0-0.1c0,0,0.1-0.1,0.1-0.1C114.8,91.6,115,91.8,115.1,92z M111.6,90.9
			C111.6,90.9,111.6,90.9,111.6,90.9c0.1-0.1,0.2-0.1,0.2,0.1C111.8,91,111.7,91,111.6,90.9z M113.5,90.7
			C113.5,90.7,113.5,90.7,113.5,90.7C113.5,90.7,113.5,90.7,113.5,90.7C113.5,90.7,113.5,90.7,113.5,90.7
			C113.5,90.7,113.5,90.7,113.5,90.7z M112.4,90.9c-0.4,0.1-0.5,0.1-0.7-0.2c-0.1-0.1,0-0.2,0.1-0.3c0.1,0,0.2-0.1,0.2-0.2
			c0,0,0.1-0.1,0.1-0.1c0.2,0,0.3-0.1,0.5-0.1c0,0,0.1,0.1,0.1,0.1c0.1,0.1,0.2,0.2,0.4,0.2c0.1,0,0.1-0.1,0.2-0.2
			c0,0,0.1-0.1,0.1-0.1c0,0.1,0.1,0.3,0.1,0.4c-0.2,0-0.4,0-0.5,0.2C112.9,90.7,112.7,90.8,112.4,90.9z M117.8,90.3
			c-0.1,0-0.1,0-0.2,0.1C117.7,90.3,117.7,90.2,117.8,90.3C117.8,90.2,117.8,90.3,117.8,90.3z M119.5,89.1c0,0.1,0,0.2-0.1,0.2
			c-0.2,0.1-0.3,0.4-0.5,0.3c-0.1,0-0.1,0-0.2,0.1c-0.1,0-0.2,0.1-0.3,0.1c-0.1,0-0.1,0-0.2,0c-0.1,0-0.1-0.2-0.1-0.2
			c0.1-0.1,0.2-0.3,0.4-0.3c0.2,0,0.5-0.1,0.7-0.2C119.4,89,119.5,89,119.5,89.1z"/>
		<path class="st0" d="M54.3,105.7C54.3,105.7,54.3,105.7,54.3,105.7c0.1,0,0.1,0,0.1,0"/>
		<path class="st1" d="M28.5,108.5L21.4,89h-6.3L13,94.7c0,0.2,0.1,0.3,0,0.5c-0.1,0.2-0.3,0.3-0.4,0.5l0,0.1c0,0.2,0.3,0.2,0.1,0.5
			c-0.3,0.3-0.3,0.1-0.3,0.1s0,0.1-0.1,0.1l-0.1,0.2c0,0,0,0.1,0,0.1c0.1,0.1,0.7,0.1,0.8,0.3c0.1,0.3-0.3,0.4-0.4,0.6
			c-0.1,0.2-0.3,0.3-0.3,0S12,97.7,12,98s-0.1,0.5-0.4,0.5c0,0,0,0,0,0l-3.7,10h5.7l1.1-3.3h7l1.1,3.3h2.1c0,0,0-0.1,0.1-0.1
			c0,0.1,0,0.1,0,0.1H28.5z M22.8,100.4c0,0.4-0.2,0-0.2,0.1c-0.1,0.2-0.1,0.2-0.1,0.3c0.1,0.2,0,0.1-0.1,0.2
			c-0.1,0.1,0.1,0.2,0.2,0.1c0.1-0.1-0.1-0.3-0.1-0.3c0-0.1,0,0,0.2,0.1c0.2,0.1,0.3,0.1,0.2,0.3c-0.2,0.2-0.4,0.4-0.5,0.2
			c-0.1-0.2-0.2-0.4-0.2-0.3c-0.1,0.1-0.2,0.1-0.1-0.1c0-0.2,0.2-0.1,0.1-0.4c-0.1-0.2,0-0.1,0.2-0.2
			C22.6,100.4,22.8,100.2,22.8,100.4z M21.8,95.1c0,0.1,0,0.3,0.1,0.4c-0.2,0-0.3,0-0.4-0.2c-0.1-0.1-0.1-0.2-0.2-0.3
			c0-0.1,0-0.1,0.1-0.2C21.6,94.9,21.8,95,21.8,95.1z M15.2,91.8c0-0.1-0.1-0.2-0.1-0.3c0-0.3,0-0.6,0.1-0.8
			c0.1,0.1,0.1,0.1,0.2,0.3c0.1,0.2,0,0.5,0.2,0.8c0,0,0,0.1,0,0.1C15.4,91.9,15.3,91.9,15.2,91.8z M21.5,94.2c0.1,0,0.1,0,0.2,0.1
			c0.1,0.1,0,0.2-0.2,0.3C21.4,94.5,21.4,94.4,21.5,94.2C21.4,94.3,21.5,94.2,21.5,94.2z M15.1,94.6c0,0,0-0.1,0-0.1
			c0-0.1,0.1-0.1,0.2-0.1c0.1,0,0.2,0,0.3,0.1c0,0.1,0,0.2,0,0.2c-0.1,0.2-0.2,0.2-0.3,0.2C15.2,94.9,15.1,94.8,15.1,94.6z
			 M18.2,101.7c-0.1-0.3,0-0.3,0.2-0.3c0.1,0,0.2-0.1,0.2-0.2h-2.5l2.1-6.4l2.1,6.4h-1.2c-0.1,0.1-0.1,0.2-0.1,0.3
			c0,0.1,0,0.2-0.1,0.2c-0.1,0.2-0.1,0.5-0.1,0.7c0,0.1,0,0.2-0.1,0.2c-0.1,0.1-0.1,0.1-0.1,0.2c0,0.1-0.2,0.2-0.2,0.1
			c-0.2-0.2-0.4-0.4-0.3-0.7C18.3,102,18.3,102,18.2,101.7C18.2,101.7,18.2,101.7,18.2,101.7z M13.3,102.6c-0.1-0.1-0.1-0.1,0-0.2
			c0.1,0,0.1-0.1,0.2-0.1c0-0.1-0.1-0.1-0.1-0.2c-0.1-0.2,0-0.3,0.3-0.3c0.2,0,0.5,0,0.7,0c0.1,0,0.2,0,0.3,0c0.2,0,0.2,0.1,0.1,0.3
			c-0.1,0-0.1,0.1-0.1,0.1c-0.1,0.3-0.4,0.4-0.8,0.4C13.7,102.8,13.5,102.7,13.3,102.6z M17.7,103.7c-0.1-0.2-0.2-0.4-0.2-0.7
			c0-0.2,0-0.3-0.1-0.4c0-0.1,0-0.2,0-0.3c0-0.1,0-0.2,0-0.2c0.1-0.1,0.2-0.1,0.3-0.1c0.1,0,0.1,0.1,0.2,0.1c0.1,0.1,0,0.2-0.1,0.3
			c-0.1,0.1-0.1,0.2-0.2,0.2c0.1,0.2,0.2,0.4,0.3,0.6c0-0.1,0-0.1,0.1-0.2c0.1,0.1,0.2,0.1,0.2,0.2c0.1,0.1,0.1,0.3,0,0.4
			c-0.1,0.1-0.2,0.2-0.2,0.3C17.9,103.9,17.8,103.9,17.7,103.7z M17.4,104.8c0-0.1,0-0.2,0.1-0.2c0.1,0,0.2,0.2,0.2,0.3
			c0,0.1-0.1,0.2-0.1,0.2C17.5,105.1,17.4,104.9,17.4,104.8z M23.1,106.9c0-0.1,0.1-0.1,0.1-0.2c0,0.1,0.1,0.1,0.1,0.2
			c0,0-0.1,0.1-0.1,0.2C23.1,107,23.1,106.9,23.1,106.9z"/>
		<path class="st1" d="M84.4,108.5v-2.4c0,0-0.1,0-0.1-0.1c0,0,0.1,0,0.1-0.1V95.3c-0.1-0.1-0.3-0.1-0.3-0.2c0-0.1,0.1-0.1,0.3-0.1
			v-0.6L84,94h0.2l0.2-0.4v-0.3l-0.3,0l0.1-0.6l-0.1-0.1v-0.5c0,0-0.4-0.3-0.1-0.9c0.1-0.2,0.4-0.3,0.4-0.3l0,0v-2.1h-5.5v4.7
			c0,0,0.1,0.1,0.1,0.1c0,0,0,0.1,0,0.1c0,0,0,0,0,0v0.6c0,0,0.1,0.1,0.1,0.2c-0.1,0-0.1,0-0.1,0v5.5l-1.5-2.3c0,0-0.1,0.1-0.1,0
			c-0.1-0.1,0-0.1,0-0.2l-3.4-5.2c0,0,0,0,0,0c-0.1,0-0.1,0-0.2,0c-0.1,0-0.3,0-0.4,0c-0.2-0.1-0.2-0.1-0.2-0.2C73,92,73,92,72.9,92
			c0.1-0.2,0.1-0.2-0.1-0.3c-0.1,0-0.3,0-0.4,0c0-0.1,0-0.1,0-0.2c0,0-0.1,0-0.1-0.1c-0.2-0.1-0.3-0.2-0.5-0.1c-0.1,0-0.2,0-0.3-0.1
			c0,0,0-0.1,0-0.1c0,0,0-0.1,0.1-0.1c0,0,0,0,0,0c-0.1,0-0.2-0.1-0.2-0.2c0,0,0,0,0,0c0.2,0,0.3,0,0.5-0.1c0,0,0,0,0.1,0
			c0,0,0,0,0,0c0,0,0,0,0-0.1c0,0,0,0,0,0c0,0,0,0.1,0.1,0.1c0.1,0,0.2,0,0.3,0c0.1,0,0.1,0,0.1-0.1c0.1-0.1,0.2-0.2,0.3-0.3l-1-1.5
			h-1.5c0,0.1,0,0.1-0.2,0.2c-0.1,0-0.2,0-0.3,0c0,0-0.1,0-0.2,0c-0.1,0-0.2-0.1-0.2-0.2h-3.2v8.9c0.1,0.1,0.2,0.1,0.4,0.1
			c0.1,0,0.2,0,0.2,0c0.2,0.1,0.2,0.2,0.1,0.3c-0.1,0.1-0.2,0.2-0.3,0.2c-0.1,0.1-0.2,0.1-0.4,0.1v9.9H68c0.1,0,0.3-0.1,0.4-0.3
			c0.1-0.1,0.2-0.3,0.3-0.4c0.1-0.2,0.3-0.3,0.5-0.2c0.2,0.1,0.4,0,0.6,0.1c0.2,0,0.3,0,0.5-0.1c0.1-0.1,0.2-0.1,0.2,0
			c0,0,0.1,0,0.1,0.1c0-0.2,0-0.3-0.1-0.5c-0.1-0.1-0.2-0.2-0.3-0.3c0.1-0.1,0.1-0.2,0.2-0.3c0-0.1-0.1-0.1-0.1-0.2
			c0-0.1,0-0.2,0-0.2c0.1-0.2,0.3-0.3,0.4-0.3c0.1,0,0.2,0.1,0.3,0.3c0,0,0,0.1,0.1,0.1c0.1,0.2,0.1,0.3,0.1,0.5
			c-0.1,0.2-0.2,0.4-0.3,0.6c-0.1,0.3-0.1,0.6,0.1,0.8c0.1,0.1,0.2,0.2,0.3,0.4h0.4v-4.4c-0.1,0-0.1,0.1-0.2,0.1
			c-0.1,0-0.1,0-0.2-0.1c0,0,0-0.1,0-0.1c0.1-0.1,0.2-0.1,0.3-0.1v-3.2c-0.1,0-0.2,0-0.3,0.1c-0.1,0-0.2,0.1-0.2,0.1
			c-0.1,0-0.2,0-0.3-0.1c0,0,0-0.1,0-0.1c0.1-0.1,0.2-0.2,0.4-0.3c0.2-0.1,0.3-0.2,0.5-0.3v-2.5l0.1,0.2c0,0,0,0,0,0c0,0,0,0,0,0
			l0,0c0,0,0,0,0,0c0,0,0.1,0,0.1-0.1c-0.1-0.1-0.1-0.2-0.1-0.2c0-0.3,0.1-0.6,0.3-0.8c0,0,0.1,0,0.1,0c0,0,0,0,0,0.1
			c0.1,0.3,0,0.6,0,1c0,0-0.1,0.1-0.1,0.1c0,0-0.1,0-0.2-0.1c0,0-0.1,0-0.1,0.1c0,0,0,0,0,0c0,0,0,0,0,0c0,0,0,0,0,0l2.8,4.3
			c0,0,0.1,0,0.1,0.1c0,0,0,0-0.1,0l4.2,6.4h3.2c0-0.1,0.1-0.1,0.1-0.1c0,0,0,0,0.1,0.1H84.4z M81.9,89.4
			C81.8,89.4,81.8,89.4,81.9,89.4c-0.1,0.1-0.1,0-0.1,0C81.7,89.4,81.8,89.4,81.9,89.4C81.8,89.3,81.8,89.4,81.9,89.4z M82.4,89.1
			C82.4,89.1,82.4,89.1,82.4,89.1c0.1,0,0.1,0,0.2,0c0,0,0,0,0,0C82.5,89.1,82.5,89.1,82.4,89.1z M81.3,89.2c0,0,0.1,0.1,0.1,0.1
			c0,0.1,0,0.3,0,0.4C81.2,89.6,81.2,89.5,81.3,89.2z M81.7,89.7c0.2-0.3,0.3-0.3,0.4,0C81.9,89.9,81.8,89.9,81.7,89.7z M82.1,90.2
			C82.1,90.1,82.1,90.1,82.1,90.2c0.1,0,0.1-0.1,0.2,0c0,0,0.1,0.1,0.1,0.1c-0.1,0.1-0.1,0.1-0.2,0.1c0,0-0.1,0-0.2,0
			C82,90.3,82.1,90.2,82.1,90.2z M84.3,90.6C84.3,90.6,84.3,90.6,84.3,90.6C84.3,90.6,84.3,90.6,84.3,90.6
			C84.3,90.6,84.3,90.6,84.3,90.6z M81.6,90.8C81.6,90.7,81.6,90.7,81.6,90.8c0.1-0.1,0.1-0.2,0.2,0C81.7,90.8,81.6,90.8,81.6,90.8z
			 M79.5,91.8C79.5,91.8,79.5,91.8,79.5,91.8C79.5,91.8,79.5,91.8,79.5,91.8C79.5,91.8,79.5,91.8,79.5,91.8
			C79.5,91.8,79.5,91.8,79.5,91.8z M79.4,93.5c-0.1-0.1-0.1-0.3-0.2-0.5c0,0,0-0.1,0-0.2c0,0,0.1,0,0.1,0c0.1,0.1,0.1,0.2,0.2,0.3
			c0.2,0.2,0.2,0.3,0,0.6C79.5,93.7,79.4,93.6,79.4,93.5z M79.7,94.1C79.7,94.1,79.7,94,79.7,94.1L79.7,94.1
			C79.7,94.1,79.7,94.1,79.7,94.1z M79,94.9C79,94.9,79,94.9,79,94.9C79,94.9,79,94.9,79,94.9C79,94.9,78.9,94.9,79,94.9
			c-0.1-0.1,0-0.1,0-0.1C79,94.8,79,94.9,79,94.9C79,94.9,79,94.9,79,94.9C79,94.9,79,94.9,79,94.9L79,94.9C79,94.9,79,94.9,79,94.9
			c0.1,0.1,0.3,0,0.4,0.2C79.1,95.2,79.1,95.2,79,94.9z M70.7,90.3c0,0.1,0,0.2-0.1,0.2C70.6,90.4,70.6,90.4,70.7,90.3z M70.8,105.7
			C70.8,105.7,70.8,105.7,70.8,105.7C70.8,105.7,70.8,105.7,70.8,105.7C70.8,105.7,70.8,105.7,70.8,105.7
			C70.8,105.7,70.8,105.7,70.8,105.7z M67.8,101.7c0.1,0.1,0.1,0.1,0.2,0.1c0,0,0.1,0.1,0.1,0.1c0,0.3,0.1,0.7-0.1,1
			c0,0.1-0.1,0.2-0.2,0.1c-0.1-0.1-0.2-0.1-0.2-0.2c-0.2-0.1-0.4-0.7-0.2-1c0.1-0.1,0.2-0.3,0.3-0.4
			C67.7,101.5,67.7,101.6,67.8,101.7z M70.9,99.2c0.1,0,0.2,0.1,0.2,0.2c0,0.1,0,0.2-0.1,0.2c-0.1,0-0.1,0-0.2,0c0,0.1,0,0.2,0,0.3
			c-0.1-0.1-0.1-0.1-0.1-0.1c0-0.2,0-0.4-0.1-0.6c0,0,0-0.1,0-0.1c0,0,0,0,0.1,0C70.8,99.2,70.9,99.2,70.9,99.2z M70.8,98.3
			C70.8,98.3,70.8,98.3,70.8,98.3C70.8,98.3,70.8,98.3,70.8,98.3C70.8,98.3,70.8,98.3,70.8,98.3C70.8,98.2,70.8,98.3,70.8,98.3z
			 M71.5,97.9L71.5,97.9C71.5,97.9,71.5,97.9,71.5,97.9C71.5,98,71.5,98,71.5,97.9C71.5,98,71.5,98,71.5,97.9L71.5,97.9
			C71.5,98,71.5,98,71.5,97.9C71.5,98,71.5,97.9,71.5,97.9C71.5,97.9,71.5,97.9,71.5,97.9L71.5,97.9z M71,97.6
			C71,97.6,71,97.7,71,97.6C71,97.7,71,97.7,71,97.6C71,97.6,71,97.6,71,97.6C71,97.6,71,97.6,71,97.6z M75.6,95.5
			C75.6,95.5,75.6,95.5,75.6,95.5C75.6,95.5,75.6,95.5,75.6,95.5C75.6,95.5,75.6,95.5,75.6,95.5z M74,92.7C74,92.7,74,92.7,74,92.7
			C74,92.8,74,92.7,74,92.7C74,92.7,74,92.7,74,92.7C74,92.7,74,92.7,74,92.7z M68.5,92.1C68.5,92.1,68.5,92.1,68.5,92.1
			c0,0,0.1,0,0.1,0c0,0,0,0,0,0C68.5,92.1,68.5,92.1,68.5,92.1z M69.2,93.6C69.2,93.6,69.2,93.5,69.2,93.6c0.1,0,0.1,0,0.1,0
			c0,0,0,0.1-0.1,0.1C69.3,93.7,69.2,93.6,69.2,93.6z M69.9,93.6c0-0.2,0-0.3-0.1-0.4c0,0,0,0,0,0c0,0,0,0,0,0
			c-0.1,0.2-0.2,0.2-0.3,0c0.1,0,0.2,0,0.3,0c0,0,0,0,0,0c0,0,0,0,0,0l0,0c0,0,0,0,0,0c0-0.1,0-0.2,0-0.3c0.1-0.1,0-0.2-0.1-0.3
			c0,0-0.1-0.1-0.1-0.1c-0.1-0.1-0.2-0.2-0.2-0.5c0.2,0.1,0.3,0.3,0.5,0.4c0.2,0.1,0.3,0.1,0.5,0.2c-0.2,0.2-0.3,0.4-0.4,0.6
			c0,0.1,0.1,0.1,0.1,0.2c0,0.1,0,0.2-0.1,0.2C70,93.8,69.9,93.7,69.9,93.6z M70.2,95.1c0-0.1-0.1-0.2-0.1-0.3
			c-0.1-0.1-0.1-0.2,0.1-0.3c0.1,0,0.1-0.1,0.2-0.1c0.1-0.1,0.3-0.1,0.4-0.2c-0.1,0.3-0.2,0.5-0.4,0.6c0,0.1,0.1,0.2,0.1,0.3
			c0,0,0,0.1-0.1,0.1C70.3,95.4,70.2,95.4,70.2,95.1z M75.3,95.4c0,0.1,0,0.2-0.1,0.3C75.2,95.5,75.2,95.4,75.3,95.4z M75.3,96.4
			C75.4,96.4,75.4,96.4,75.3,96.4C75.4,96.5,75.4,96.5,75.3,96.4C75.4,96.5,75.4,96.5,75.3,96.4C75.3,96.5,75.3,96.5,75.3,96.4z
			 M75.5,96.8L75.5,96.8L75.5,96.8L75.5,96.8z M76.6,97.4C76.6,97.4,76.6,97.4,76.6,97.4C76.6,97.4,76.6,97.4,76.6,97.4
			C76.7,97.4,76.6,97.4,76.6,97.4C76.6,97.4,76.6,97.4,76.6,97.4z M82.4,95.2c0.1,0,0.2,0,0.2,0.2C82.4,95.4,82.4,95.3,82.4,95.2z
			 M80.9,96.2C80.9,96.2,80.9,96.1,80.9,96.2c0.1,0,0.1,0,0.2,0c0,0,0,0.1,0,0.1C81,96.2,80.9,96.2,80.9,96.2z M82.8,96.2
			c0.1,0.2,0.2,0.4,0.1,0.7C82.9,96.6,82.8,96.4,82.8,96.2z M79.4,97.2C79.4,97.1,79.4,97.1,79.4,97.2
			C79.4,97.1,79.4,97.1,79.4,97.2C79.4,97.2,79.4,97.2,79.4,97.2C79.4,97.2,79.4,97.2,79.4,97.2z M82,97.2c0.1-0.1,0.2,0.1,0.3,0.2
			C82.1,97.4,82.1,97.4,82,97.2z M82.6,97.9C82.6,97.9,82.6,97.9,82.6,97.9C82.7,97.9,82.7,97.9,82.6,97.9
			C82.6,97.9,82.6,98,82.6,97.9C82.6,97.9,82.6,97.9,82.6,97.9z M82.4,98.2C82.4,98.2,82.4,98.2,82.4,98.2
			C82.4,98.2,82.4,98.2,82.4,98.2C82.4,98.2,82.3,98.2,82.4,98.2C82.3,98.1,82.3,98.1,82.4,98.2C82.4,98.1,82.4,98.2,82.4,98.2
			C82.4,98.2,82.4,98.2,82.4,98.2C82.4,98.2,82.4,98.2,82.4,98.2L82.4,98.2C82.4,98.2,82.4,98.2,82.4,98.2c0.2,0,0.2,0.3,0.4,0.4
			C82.6,98.5,82.5,98.3,82.4,98.2z M81.9,98.7c0.1,0,0.2,0,0.3,0C82.1,99,82,99,81.8,99C81.8,98.9,81.8,98.8,81.9,98.7z M72.6,97.6
			C72.6,97.6,72.6,97.6,72.6,97.6c0.1,0,0.1,0,0.2,0.1c0,0,0,0.1,0,0.1C72.6,97.8,72.6,97.8,72.6,97.6z M73,98.2
			C73,98.2,73,98.2,73,98.2C73.1,98.2,73.1,98.2,73,98.2C73.1,98.2,73.1,98.2,73,98.2C73.1,98.2,73,98.2,73,98.2z M77.6,99.4
			c0.1,0,0.1,0,0.2,0.2C77.7,99.5,77.7,99.4,77.6,99.4z M73.5,99.6c0.1,0.1,0.1,0.1,0.1,0.2c0,0,0,0,0,0.1
			C73.5,99.8,73.5,99.7,73.5,99.6z M77.3,99.8C77.4,99.8,77.4,99.8,77.3,99.8C77.4,99.8,77.4,99.8,77.3,99.8
			C77.4,99.8,77.4,99.8,77.3,99.8C77.4,99.8,77.4,99.8,77.3,99.8z M73.5,100c0,0,0-0.1,0-0.1c0,0.1,0.1,0.1,0.1,0.1
			c0,0,0,0.1-0.1,0.1C73.5,100.1,73.5,100.1,73.5,100z M79.2,100c0-0.1,0-0.2,0.1-0.2c0.1,0.2,0.1,0.3,0,0.5
			C79.2,100.3,79.2,100.2,79.2,100z M77.8,100.7C77.8,100.7,77.8,100.7,77.8,100.7C77.9,100.7,77.9,100.7,77.8,100.7
			C77.9,100.7,77.9,100.8,77.8,100.7C77.9,100.8,77.8,100.7,77.8,100.7z M77.4,100.9c0.1,0.1,0.2,0.2,0.4,0.3c0,0,0,0,0,0.1
			C77.6,101.2,77.5,101.1,77.4,100.9z M77.9,101.4c0.2-0.1,0.2-0.1,0.2,0.2C78,101.5,78,101.4,77.9,101.4z M78.2,101.7
			C78.2,101.7,78.2,101.7,78.2,101.7C78.2,101.7,78.2,101.7,78.2,101.7C78.2,101.7,78.2,101.7,78.2,101.7
			C78.2,101.7,78.2,101.7,78.2,101.7z M83.8,102.3c0,0,0.1-0.1,0.1-0.1c0,0,0.1,0.1,0.1,0.1C83.9,102.3,83.9,102.3,83.8,102.3
			C83.8,102.3,83.8,102.3,83.8,102.3z M77.9,102.8C77.9,102.8,77.9,102.8,77.9,102.8C77.9,102.8,78,102.8,77.9,102.8
			c0.1,0,0.1,0.1,0,0.1C77.9,102.9,77.9,102.9,77.9,102.8z M78.3,104.4c0,0-0.1-0.1-0.1-0.1c0-0.1-0.1-0.1-0.1-0.2
			c0-0.1,0.1-0.1,0.1-0.1c0.1,0,0.3,0.2,0.3,0.3c0,0.1,0,0.2-0.1,0.2C78.4,104.5,78.3,104.4,78.3,104.4z M77.4,104.6
			c0,0,0-0.1,0-0.1c0,0,0.1,0,0.1,0c0.1,0.1,0.2,0.2,0.1,0.4C77.5,104.8,77.4,104.7,77.4,104.6z M83.3,105.4
			c-0.1,0.1-0.2,0.1-0.3,0.1C83.1,105.4,83.1,105.4,83.3,105.4z M78.2,105.5C78.2,105.5,78.2,105.5,78.2,105.5c0.1,0,0.1,0,0.2,0.1
			C78.3,105.7,78.2,105.6,78.2,105.5z M78.8,105.6C78.8,105.6,78.8,105.6,78.8,105.6c0-0.1,0.1-0.1,0.1,0c0,0,0,0,0,0.1
			C78.9,105.6,78.8,105.6,78.8,105.6z M83.1,106.9c0.1,0.1,0.1,0.1,0.2,0.2C83.1,107.1,83.1,107.1,83.1,106.9z M83.3,107.1
			C83.4,107.1,83.4,107.1,83.3,107.1C83.4,107.1,83.4,107.1,83.3,107.1C83.4,107.2,83.4,107.2,83.3,107.1
			C83.4,107.2,83.4,107.1,83.3,107.1z"/>
	</g>
	<g>
		<path class="st1" d="M11.8,8.1L11.8,8.1C11.8,8.1,11.8,8.1,11.8,8.1C11.8,8.1,11.8,8.1,11.8,8.1z"/>
		<path class="st1" d="M6.2,13.3c0-0.4,0.2-0.7,0.4-1c0.1-0.1,0.1-0.3,0.1-0.4c0-0.2,0.1-0.3,0.2-0.4c0.2-0.1,0.4-0.4,0.5-0.7
			c0.1-0.3,0.3-0.5,0.5-0.5c0.1,0,0.2-0.1,0.2-0.3c0-0.1,0.1-0.2,0.1-0.3c0.1-0.1,0.2-0.1,0.3,0c0,0.1,0.1,0.2,0.1,0.3
			c-0.1,0.2-0.1,0.5-0.2,0.7c0,0.1-0.1,0.2-0.2,0.2c-0.3,0.1-0.4,0.4-0.4,0.8c0,0.3-0.1,0.6-0.2,0.8c0,0.1-0.1,0.1-0.2,0.2
			c-0.3,0.1-0.3,0.1-0.4,0.5c0,0.2-0.1,0.4-0.3,0.5c-0.2,0.1-0.3,0.3-0.5,0.5c-0.1,0-0.2,0-0.2,0.1v4.3c0.1,0,0.1,0,0.2-0.1
			c0.4,0,0.7-0.1,1.1-0.1c0.2,0,0.4,0.1,0.6,0.2c0.2,0.1,0.4,0.3,0.5,0.5c0-0.1,0-0.1,0-0.2c0-0.1,0-0.2,0-0.3
			c0-0.1,0.2-0.2,0.2-0.1c0.1,0.2,0.2,0.4,0.3,0.6c0.1,0.2-0.1,0.5-0.2,0.5c-0.1,0-0.1,0-0.2-0.1c0,0.1-0.2,0.1-0.4,0.1
			c-0.2,0-0.5,0.1-0.7,0.2c-0.1,0-0.2,0.1-0.3,0.1c0,0.1,0,0.2,0,0.3c-0.2,0-0.3,0.1-0.5,0.1c0-0.1-0.1-0.2,0-0.2c0-0.1,0-0.1,0-0.2
			c-0.2,0-0.4,0-0.7,0c0,0,0,0,0,0v18.4c0,0,0,0,0,0c0.1,0,0.1,0,0.1,0c0.1-0.1,0.1-0.2,0.3-0.2c0.1,0,0.2,0.2,0.3,0.2
			c0.1,0.1,0.2,0.1,0.3,0.2c0.2,0.1,0.2,0.2,0,0.3c-0.1,0.1-0.3,0.2-0.5,0.3c-0.1,0.1-0.3,0.1-0.5,0.1v4.7c0,0,0,0,0,0
			c0.1,0.2,0.1,0.2,0,0.4c0,0,0,0,0,0v1.3c0,0,0,0,0,0C6.2,45.8,6.3,46,6.6,46c0.1,0,0.2,0.1,0.2,0.2c0.1,0.1,0.1,0.2,0,0.3
			c-0.1,0.1-0.3,0.1-0.4,0c-0.1-0.1-0.2-0.2-0.4-0.3v9.3l1.3-1.8c0,0-0.1,0.1-0.1,0.1c0,0-0.1-0.1-0.1-0.1c0-0.1,0.1-0.1,0.1-0.1
			c0,0,0,0.1,0.1,0.1l6.1-8.8c0,0,0,0-0.1,0c0,0-0.1,0-0.1,0c0,0,0-0.1,0.1-0.1c0,0,0.1,0.1,0.1,0.1l5.1-7.2c-0.2,0-0.3,0-0.5-0.1
			c-0.1-0.1-0.2-0.1-0.3-0.2c-0.1-0.1-0.2-0.2-0.1-0.3c0.1-0.1,0.3-0.1,0.4-0.1c0.1,0.1,0.3,0.1,0.3,0.2c0.1,0.1,0.1,0.2,0.2,0.3
			l9.5-13.6c0,0,0,0-0.1,0c-0.1,0-0.2-0.1-0.2-0.3c0-0.2,0.1-0.4,0.2-0.4c0.2,0,0.3,0.1,0.3,0.3l3.5-5c0,0,0-0.1,0.1-0.1l1.6-2.3
			c0.1-0.1,0.1-0.3,0.2-0.4c0-0.1,0.1-0.1,0.2-0.1l5.3-7.5h-8.9c-0.1,0.3-0.3,0.5-0.5,0.6c-0.1,0-0.2,0-0.3,0
			c-0.2-0.2-0.5-0.3-0.7-0.5h-5.4c0,0,0,0,0,0c0,0,0,0,0,0h-1.8c0,0.4,0,0.8,0.1,1.1c-0.2,0.2-0.2,0.2-0.3,0
			c-0.1-0.1-0.2-0.2-0.2-0.4c0-0.2,0.1-0.5,0.1-0.7c0-0.1,0.1-0.1,0.1-0.1h-6.7c0,0.2,0,0.4-0.1,0.7c0,0.1,0,0.3-0.2,0.3
			c-0.1,0-0.3-0.2-0.3-0.3c0-0.2,0-0.4,0-0.7h-0.3c0,0.1-0.1,0.1-0.1,0.2c0,0-0.1-0.1-0.1-0.1c0,0,0,0,0-0.1h-0.6
			c0,0.1,0,0.2-0.1,0.3c-0.1,0.2-0.2,0.4,0,0.7c0.1,0.2,0.1,0.5,0,0.8c-0.1,0.2-0.1,0.4-0.1,0.5c-0.1,0.4,0,0.5,0.3,0.4
			c0,0,0.1,0,0.1,0c0.1,0.3,0.2,0.5,0.2,0.8c0,0.1,0,0.2,0,0.3c-0.1,0.3-0.1,0.5,0.1,0.8c0.2,0.4,0.4,0.8,0.6,1.2
			c0,0.1,0.1,0.1,0.2,0.1c0.1,0,0.1,0,0.2,0c0,0.2,0,0.4,0,0.6c-0.2-0.1-0.3-0.2-0.5-0.3c0,0.3,0.1,0.4,0.2,0.5
			c0.1,0.1,0.2,0.2,0.2,0.4c0,0.1,0,0.1,0.1,0.2c0.1,0.2,0.4,0.3,0.4-0.1c0-0.1,0-0.3,0.2-0.3c0.2,0,0.2,0.2,0.2,0.4
			c0,0.4,0.1,0.8,0.1,1.1c0,0.1,0,0.1,0.1,0.2c0.2,0.1,0.2,0.4,0.3,0.7c0,0.2,0.1,0.3,0.1,0.5c0.1,0.3,0.2,0.6,0.1,0.9
			c-0.1,0.4-0.1,0.4,0,0.7c0.3-0.2,0.6,0,0.7,0.3c0.1,0.2,0,0.3-0.1,0.3c-0.2,0-0.4,0-0.5,0.2c-0.1,0.2-0.3,0.3-0.3,0.6
			c0-0.1,0-0.1,0-0.2c0-0.4-0.2-0.5-0.4-0.2c0,0-0.1,0.1-0.1,0.1c-0.1,0.1-0.3,0-0.3-0.2c0-0.3-0.1-0.5-0.3-0.7
			c-0.1-0.1-0.1-0.2-0.1-0.3c0-0.2-0.1-0.3-0.1-0.5c0,0,0,0-0.1,0c0,0.1-0.1,0.1,0,0.2c0.1,0.5-0.1,0.8-0.4,1c0,0-0.1,0-0.1,0
			c-0.1-0.6-0.2-1.2,0.2-1.7c0.2-0.2,0.2-0.5,0.1-0.8c0-0.1,0-0.2,0-0.3c0.1-0.1,0.1-0.2,0-0.4c0-0.1-0.1-0.2-0.1-0.3
			c0-0.2-0.1-0.3-0.3-0.4c-0.6-0.2-0.6-0.2-0.6-0.9c0-0.3,0-0.7,0.1-1c0.1-0.2-0.1-0.4-0.2-0.6c-0.1-0.1-0.1-0.1-0.2-0.2
			c-0.2-0.2-0.2-0.4-0.2-0.7c0-0.3,0-0.7-0.1-1c0-0.3-0.1-0.3-0.3-0.2c-0.1-0.1-0.2-0.1-0.3-0.2c0,0.2-0.1,0.3-0.2,0.4
			c-0.1,0.2-0.3,0.4-0.4,0.6c0,0.1-0.1,0.1-0.2,0.2c-0.2,0.1-0.4,0.1-0.4-0.1c0-0.1-0.1-0.2,0-0.3c0.1-0.3,0.2-0.7,0.4-1
			c0.2-0.3,0.2-0.6,0.2-0.9c0-0.2,0-0.4,0.1-0.6c0,0,0-0.1,0-0.1c-0.1-0.3-0.1-0.6-0.4-0.8C11,8.5,11,8.4,10.9,8.3
			c0-0.1,0-0.1-0.1-0.2H6.1v5.6C6.1,13.5,6.2,13.5,6.2,13.3z M8.5,17.6L8.5,17.6C8.5,17.7,8.5,17.6,8.5,17.6
			C8.5,17.6,8.5,17.6,8.5,17.6C8.5,17.6,8.5,17.6,8.5,17.6L8.5,17.6C8.5,17.6,8.5,17.6,8.5,17.6C8.5,17.6,8.5,17.6,8.5,17.6z
			 M6.3,37.7C6.3,37.7,6.3,37.6,6.3,37.7C6.3,37.6,6.3,37.6,6.3,37.7C6.3,37.6,6.4,37.6,6.3,37.7C6.4,37.6,6.3,37.7,6.3,37.7z
			 M6.4,35.3c-0.1,0-0.1-0.1-0.1-0.2c0-0.2,0.1-0.3,0.2-0.3c0.1,0,0.1,0.1,0.1,0.1C6.6,35.1,6.5,35.3,6.4,35.3z M6.5,51
			C6.5,51,6.5,51,6.5,51C6.5,51,6.5,51,6.5,51C6.5,51,6.5,51,6.5,51C6.5,51,6.5,51,6.5,51z M6.2,54.1C6.2,54.1,6.2,54.1,6.2,54.1
			C6.2,54.1,6.2,54.1,6.2,54.1L6.2,54.1z M6.7,53.3c-0.1,0.2-0.2,0.3-0.3,0.4c-0.2-0.4-0.2-0.5,0-0.8c0.1-0.1,0.2-0.3,0.3-0.4
			c0,0,0.1-0.1,0.2,0c0,0,0.1,0.2,0.1,0.2C6.8,52.9,6.8,53.1,6.7,53.3z M35.5,8.7c0,0.3,0.1,0.5-0.1,0.6c-0.1,0.1-0.2,0-0.3-0.1
			C35.2,9,35.3,8.9,35.5,8.7z M34,10.9c0-0.1,0.1-0.2,0.2-0.2c0.1,0.1,0.1,0.2,0,0.3c0,0.1-0.1,0.1-0.1,0.2
			C34,11.2,33.9,11.1,34,10.9z M32.3,12.5c0.1-0.2,0.2-0.4,0.2-0.6c0.2,0,0.3-0.1,0.5-0.1c0,0.6,0.2,1,0.6,1.2
			c0.2,0.1,0.3,0.4,0.4,0.7c-0.1,0.2-0.3,0.2-0.5,0c-0.3-0.3-0.4-0.3-0.6,0c-0.1,0.1-0.1,0.2-0.2,0.3c-0.1,0.1-0.2,0.2-0.3,0.2
			c-0.2,0.1-0.3-0.1-0.3-0.3c0-0.3,0-0.5,0-0.8C32.2,12.8,32.2,12.6,32.3,12.5z M29.2,13.6c0-0.1,0.1-0.2,0.1-0.2
			c0.1,0.1,0.2,0.1,0.2,0.2c0.1,0.3,0.2,0.6,0.3,0.9c0,0,0,0.2,0,0.2c-0.1,0.2-0.2,0.5-0.5,0.7c-0.1-0.1-0.1-0.2-0.1-0.2
			C29.2,14.6,29.1,14.1,29.2,13.6z M14.4,13.8c0-0.3,0-0.3,0.2-0.3C14.7,13.7,14.6,13.7,14.4,13.8z M14.8,10.9
			c-0.1,0.1-0.2,0.2-0.3,0.3c-0.1-0.1-0.1-0.1-0.1-0.1c0-0.5-0.1-1-0.1-1.5c0-0.3,0.2-0.4,0.4-0.3c0.1,0.1,0.1,0.2,0.1,0.3
			c0,0.2,0,0.4,0.1,0.6C14.9,10.5,14.9,10.7,14.8,10.9z M8.8,22.7C8.8,22.7,8.8,22.7,8.8,22.7C8.8,22.7,8.8,22.7,8.8,22.7
			C8.8,22.7,8.8,22.7,8.8,22.7C8.8,22.7,8.8,22.7,8.8,22.7z M7.8,37.5c0.4,0.1,0,0.5,0.4,0.6c0,0,0.1-0.1,0.1-0.1
			c-0.1-0.3-0.1-0.5-0.2-0.8c-0.1,0-0.2,0-0.4,0c-0.1-0.3-0.1-0.5-0.1-0.8c0-0.1,0-0.2,0.1-0.3c0.2-0.3,0.6-0.5,1-0.6c0,0,0,0,0,0
			l0,0c0,0,0,0,0,0c0,0.3,0.4,0.6,0.6,0.8c0.1,0.1,0.3,0.1,0.4,0.1c0.1,0,0.3,0,0.5,0c0.2,0,0.4,0,0.4,0.2c0,0,0.1,0.1,0.1,0.1
			c0.2,0.1,0.2,0.1,0.1,0.3c-0.1,0.2-0.3,0.3-0.6,0.3c-0.4,0.1-0.8,0.1-1.2,0c-0.3-0.1-0.5,0.1-0.5,0.3c0,0.2,0,0.4,0,0.6
			c0,0.2,0.2,0.4,0.3,0.5C9,38.9,9.1,39,9.2,39.1c0.1,0.1,0.1,0.2,0.1,0.3c-0.7-0.2-0.9-0.7-1.6-0.9C7.8,38.2,7.6,37.9,7.8,37.5z
			 M7.7,35.3c0,0,0.1-0.1,0.1-0.1c0,0,0.1,0.1,0.1,0.1C7.8,35.3,7.7,35.4,7.7,35.3C7.7,35.4,7.7,35.4,7.7,35.3z M10.5,31.8
			c0-0.2,0.2-0.5,0.3-0.5c0.1,0,0.2,0.1,0.2,0.2c0,0.2-0.2,0.5-0.4,0.5C10.5,31.9,10.5,31.8,10.5,31.8z M11,41.7
			c0.2,0,0.2,0.1,0.1,0.2C11,42,11,42,11,42c-0.2,0.1-0.3,0.1-0.4,0c0-0.1-0.1-0.1-0.2-0.3C10.6,41.7,10.8,41.7,11,41.7z M8.6,40.9
			c0.2-0.1,0.7-0.3,0.9-0.3c0,0,0.1,0,0.2,0.1c0.2,0.1,0.2,0.3,0.1,0.6c-0.1,0.1-0.2,0.3-0.3,0.4c-0.1,0.2-0.2,0.2-0.3,0.1
			c-0.1-0.1-0.2-0.1-0.4-0.1c-0.2,0-0.4-0.1-0.4-0.3C8.4,41.2,8.4,41,8.6,40.9z M8.4,40.1C8.5,40,8.7,40,8.8,40.1
			C8.7,40.3,8.6,40.2,8.4,40.1z M8.3,40.7C8.3,40.7,8.3,40.7,8.3,40.7C8.3,40.6,8.3,40.7,8.3,40.7C8.3,40.7,8.3,40.7,8.3,40.7
			C8.3,40.8,8.3,40.7,8.3,40.7z M9.7,44.9c-0.1,0.4-0.5,0.5-0.8,0.7c0.1,0.2,0.1,0.4,0.3,0.5c0.1,0,0.1,0.1,0.2,0.1
			c0.1,0,0.2,0.1,0.2,0.2c0,0.1-0.1,0.3-0.2,0.4c-0.1,0.1-0.2,0.1-0.3-0.1c-0.1-0.2-0.3-0.3-0.5-0.4c-0.2-0.1-0.3-0.4-0.1-0.6
			c0.1-0.1,0.2-0.2,0.3-0.3c0.2-0.2,0.2-0.2,0.1-0.4c0-0.1,0-0.2,0-0.3c0.3,0.2,0.6,0,0.8-0.2c0,0.2,0.2,0.2,0.3,0.2
			c0.2,0,0.5,0,0.7,0C10.3,44.9,10,45,9.7,44.9z M12,43.3c-0.3,0-0.5,0.1-0.7,0.3c-0.1,0.2-0.3,0.2-0.6,0.1c0.1-0.1,0.1-0.2,0.2-0.3
			c0.1-0.1,0.2-0.2,0.2-0.2c0.2-0.3,0.8-0.5,1.1-0.3c0.1,0,0.1,0.1,0.1,0.2C12.3,43.2,12.2,43.3,12,43.3z M13.5,43.4
			c-0.1-0.1-0.1-0.2-0.1-0.3c0.1-0.1,0.2-0.3,0.4-0.2C13.6,43,13.5,43.2,13.5,43.4z M14.6,42c-0.1,0.1-0.2,0.2-0.3,0.4
			c-0.2,0.2-0.2,0.2-0.3-0.1c-0.1-0.2-0.1-0.5-0.2-0.7c0-0.2,0.1-0.3,0.1-0.4c-0.1,0-0.1-0.1-0.2-0.1c-0.1,0-0.2-0.1-0.2-0.1
			c-0.3-0.1-0.3-0.2-0.2-0.4c0.1-0.2,0.2-0.4,0.3-0.6c0-0.1,0-0.2,0-0.3c0-0.1,0-0.2,0.1-0.3c0.1,0,0.3,0,0.4,0
			c0.2,0.1,0.5,0.2,0.6,0.4c-0.1,0.1-0.3,0.2-0.4,0.1c-0.2,0-0.4,0-0.5,0.1c0.3,0.1,0.4,0.4,0.5,0.6c0,0,0,0.1,0,0.1
			c0,0.1,0,0.1,0,0.2c0,0,0,0,0.1,0c0.2,0.2,0.3,0.4,0.4,0.6C14.7,41.8,14.7,41.9,14.6,42z M13.3,36.1c0.2,0,0.4-0.1,0.6,0
			c0.3,0,0.3,0.1,0.2,0.3c-0.1,0.1-0.1,0.1-0.2,0.2C13.6,36.3,13.5,36.3,13.3,36.1z M17.7,37.7c-0.3,0.1-0.6,0.2-0.9,0.1
			c-0.1,0-0.2-0.1-0.3-0.2c0-0.1,0.1-0.2,0.2-0.2c0.1-0.1,0.2-0.1,0.3-0.2c0.1,0,0.2-0.1,0.3,0c0.1,0,0.1,0.1,0.1,0.2
			c0,0,0,0.1,0,0.1C17.5,37.5,17.6,37.6,17.7,37.7C17.7,37.6,17.7,37.7,17.7,37.7z M17,27.7c0-0.1,0-0.2,0-0.2c0,0,0.2,0,0.3,0
			c0.2,0.1,0.3,0.3,0.2,0.5C17.2,27.9,17.1,27.8,17,27.7z M17.2,34.4c-0.1-0.1,0-0.2,0.1-0.3C17.3,34.2,17.3,34.3,17.2,34.4z
			 M18.4,36.4c0,0-0.1,0-0.2,0.1c-0.2,0-0.3,0.1-0.5,0.1c-0.3,0.1-0.6-0.1-0.7-0.3c0-0.2,0.1-0.3,0.3-0.3c0.2,0,0.4,0,0.6-0.1
			c0.3-0.1,0.7-0.1,0.9,0.1C18.8,36.1,18.6,36.2,18.4,36.4z M21,32.2c-0.1,0.1-0.2,0.2-0.4,0.3c-0.3,0.4-0.8,0.4-1.4,0.5
			c-0.1,0-0.2,0-0.3,0c-0.2-0.1-0.2-0.2,0-0.3c0.4-0.1,0.6-0.3,0.7-0.6c0.1-0.2,0.3-0.3,0.8-0.3c0.1,0,0.2,0,0.3,0
			C21,31.9,21.1,32,21,32.2z M21.7,31.5C21.7,31.5,21.7,31.5,21.7,31.5C21.6,31.5,21.7,31.5,21.7,31.5
			C21.7,31.5,21.7,31.5,21.7,31.5C21.7,31.5,21.7,31.5,21.7,31.5z M23.9,26.6c0,0.1-0.1,0.2-0.2,0.1c-0.1-0.1-0.1-0.2,0-0.3
			c0.1-0.2,0.2-0.2,0.4-0.2C24,26.4,23.9,26.5,23.9,26.6z M27.6,24.7c-0.1,0.1-0.1,0.1-0.2,0.2c0-0.1-0.1-0.1-0.1-0.2
			c0-0.1,0.1-0.1,0.1-0.1C27.5,24.5,27.5,24.6,27.6,24.7z M27.4,21.4C27.4,21.5,27.4,21.5,27.4,21.4c0,0.2,0,0.3,0,0.5
			c0,0-0.1,0.1-0.1,0.1c0,0-0.1-0.2-0.1-0.2C27.2,21.6,27.3,21.5,27.4,21.4z M26.6,12.6c0,0.2-0.1,0.3-0.1,0.5
			c-0.2-0.1-0.3-0.2-0.2-0.4C26.3,12.4,26.5,12.5,26.6,12.6z M25.6,17c0,0,0.1,0,0.2,0c0.1,0.2,0,0.2-0.1,0.4
			C25.5,17.3,25.5,17.2,25.6,17z M25.6,22.2c0,0,0.1,0,0.2,0c0,0,0.1,0.1,0.1,0.2c0,0.1,0,0.2-0.1,0.2c-0.2,0.2-0.4,0.4-0.6,0.3
			c-0.3-0.2-0.6-0.1-0.9-0.1c0,0-0.1,0-0.1,0c0,0,0,0,0-0.1c0.3-0.1,0.3-0.4,0.5-0.7c0.1-0.2,0.2-0.3,0.4-0.3
			c0.3,0.1,0.3,0.1,0.3,0.5c0,0.1,0,0.1,0.1,0.2C25.5,22.4,25.5,22.3,25.6,22.2z M24.4,9.4c0.1-0.3,0.3-0.5,0.5-0.4
			c0.3,0,0.5,0.1,0.5,0.3c0,0.2,0,0.4-0.1,0.5c-0.2,0.3-0.4,0.5-0.5,0.7c0,0-0.2,0-0.2,0C24.2,10.3,24.2,9.8,24.4,9.4z M24.1,14.1
			c0.1-0.1,0.2-0.1,0.2,0.1c0.1,0.2,0,0.4-0.3,0.5C24,14.4,24,14.2,24.1,14.1z M24.2,25c0.1,0,0.2,0.1,0.4,0c0.1-0.1,0.2,0,0.2,0.1
			c0,0.1,0.1,0.3,0,0.3c-0.1,0.2-0.3,0.4-0.5,0.4c-0.1,0-0.3,0-0.4,0c-0.2,0-0.3-0.2-0.2-0.4C23.7,25.1,24,24.9,24.2,25z M22.4,16
			c0-0.1,0.1-0.2,0.2-0.3c0.2-0.1,0.3-0.3,0.5-0.4c0.2-0.2,0.5,0,0.5,0.3c0,0.2,0,0.4-0.2,0.6c-0.1,0.1-0.2,0.3-0.3,0.5
			c-0.2,0.2-0.4,0.4-0.6,0.6c-0.2,0.1-0.3,0.1-0.3-0.2c0-0.1,0-0.1,0-0.2C22.2,16.6,22.3,16.3,22.4,16z M21.8,17
			C21.8,17,21.8,17,21.8,17C21.8,17,21.8,17,21.8,17C21.8,17,21.8,17,21.8,17C21.8,17,21.8,17,21.8,17z M21.3,21.2
			c0.1-0.3,0.2-0.6,0.2-0.9c0-0.1,0.1-0.2,0.2-0.3c0.2-0.1,0.4-0.3,0.5-0.6c0.1,0.1,0.2,0.2,0.3,0.3c0.2-0.2,0.4-0.4,0.6-0.6
			c0.1,0.3,0.1,0.6,0.1,0.8c0,0.3-0.1,0.6,0.2,0.8c0,0,0.1,0.1,0,0.2c-0.1,0.2-0.1,0.5-0.3,0.5c-0.1,0-0.2,0.2-0.2,0.3
			c-0.1,0.2-0.2,0.3-0.3,0.3c-0.1,0-0.3,0.1-0.4,0.1c-0.2,0.1-0.4,0-0.6-0.3c-0.1-0.1-0.2-0.3-0.3-0.4
			C21.3,21.4,21.3,21.3,21.3,21.2z M21.1,25.7c0,0,0.1,0.1,0.1,0.1c0,0,0,0-0.1,0.1C21.2,25.9,21.1,25.8,21.1,25.7
			C21.1,25.8,21.1,25.7,21.1,25.7z M21,12.4c0,0.1,0.1,0.1,0.1,0.2c0,0-0.1,0.1-0.1,0.1c0,0-0.1-0.1-0.1-0.2
			C20.9,12.5,21,12.5,21,12.4z M20.2,15.4c0,0,0,0,0.1,0c-0.1,0-0.1,0.1-0.1,0.1C20.2,15.5,20.2,15.4,20.2,15.4
			C20.2,15.4,20.2,15.4,20.2,15.4z M20.6,24.1c0.2,0.1,0.2,0.3,0.2,0.6c-0.1,0.4-0.1,0.7,0.1,1.1c0.1,0.2,0,0.4,0,0.5
			c-0.1,0.2-0.1,0.5,0.1,0.7c0.1,0.1,0.1,0.3,0,0.5c0,0.1-0.1,0.1-0.1,0.1c0,0-0.1-0.1-0.1-0.1c-0.1-0.2-0.1-0.3-0.1-0.5
			c-0.2,0-0.3,0.1-0.4,0.1c-0.3,0-0.4-0.1-0.4-0.5c0-0.4-0.1-0.7-0.2-1c-0.1-0.3-0.1-0.7,0.1-0.9c0.1-0.2,0.2-0.3,0.3-0.5
			C20.2,24,20.4,24,20.6,24.1z M19.6,23.9c0,0.1,0.1,0.2,0.1,0.3c0,0.1-0.1,0.3-0.2,0.2c-0.1,0-0.1-0.2-0.1-0.2
			C19.4,24.1,19.4,23.9,19.6,23.9z M19.3,23.5c0,0.1-0.1,0.2-0.1,0.2c0,0-0.1,0-0.2-0.1c-0.1-0.1-0.1-0.2-0.1-0.4
			C19.2,23.1,19.3,23.2,19.3,23.5z M18.2,18.1c0.1-0.1,0.2,0,0.2,0.2c0,0.3-0.1,0.5-0.4,0.6C17.9,18.5,18,18.2,18.2,18.1z
			 M17.1,20.4c0.1,0,0.1,0,0.2,0c0.2-0.1,0.5,0.1,0.5,0.4c0,0.3,0.1,0.5,0.2,0.8c0,0.2,0.2,0.2,0.3,0.2c0.1,0,0.1,0,0.3-0.1
			c-0.2,0.5-0.3,0.5-0.5,0.5c-0.1,0-0.2-0.1-0.2-0.2c0-0.2-0.2-0.4-0.3-0.4c-0.1,0-0.1-0.1-0.1-0.1c-0.1-0.3-0.2-0.5-0.4-0.6
			c0,0-0.1-0.2-0.1-0.3C16.9,20.4,17,20.4,17.1,20.4z M16.7,30.6c0,0.1-0.1,0.2-0.1,0.3c-0.1,0.1-0.2,0-0.3-0.2
			C16.5,30.7,16.6,30.6,16.7,30.6z M16.5,32.2c-0.1,0.1-0.2,0.1-0.2,0.1c0,0-0.1,0-0.1-0.1c0,0,0.1-0.1,0.1-0.1
			C16.3,32.2,16.4,32.2,16.5,32.2z M16.1,25.9c0-0.2,0-0.4,0.1-0.5c0.3,0.4,0.3,0.5,0.2,0.9c0,0,0.1,0.1,0.2,0.2c0,0,0.1,0.2,0,0.2
			c-0.1,0.2-0.2,0.4-0.4,0.6c-0.1,0.1-0.2,0-0.2-0.1c0-0.2-0.1-0.4-0.1-0.6C16.1,26.4,16.1,26.2,16.1,25.9z M15.8,35.8
			c0,0.1,0.1,0.1,0.2,0.1c0.1,0,0.1,0.1,0.2,0.1c0.3,0.3,0.2,0.5-0.4,0.6c0.1,0.3,0.2,0.6,0.2,0.9c0,0,0,0,0,0
			c0.1,0.2,0,0.4-0.1,0.4c-0.1,0-0.4-0.1-0.5-0.2c0,0-0.1-0.1,0-0.2c0.1-0.3,0-0.5-0.3-0.6c-0.3-0.1-0.5-0.4-0.4-0.6
			c0-0.2,0-0.4-0.1-0.5c-0.1-0.1-0.2-0.2-0.1-0.3c0.1-0.1,0.3-0.1,0.5-0.1C15.2,35.4,15.6,35.4,15.8,35.8z M14.7,34.2
			c0.2,0.1,0.3,0.2,0.3,0.4c-0.2,0.1-0.4-0.1-0.5-0.1c-0.2-0.2-0.4-0.3-0.8-0.3c-0.2,0-0.3-0.2-0.4-0.3c-0.1-0.1,0-0.2,0.2-0.3
			c0.1,0,0.1,0.1,0.2,0.1C14,33.9,14.3,34,14.7,34.2z M13.4,28.3c0,0,0.1,0,0.2,0c0.1,0.1,0.2,0.1,0.2,0.2c0,0,0.1,0,0.1,0
			c0.1-0.1,0.2-0.2,0.3,0c0.1,0.2,0.2,0.4,0.1,0.6c0,0.1-0.1,0.2-0.1,0.3c-0.1,0.2-0.2,0.4-0.3,0.7c-0.1,0.1-0.2,0.2-0.3,0.4
			c-0.1,0.1-0.1,0.2-0.2,0.1c-0.1-0.1-0.2-0.2-0.2-0.3c0-0.2,0-0.3-0.2-0.5c0,0-0.1-0.2-0.1-0.2C12.9,28.9,13.2,28.6,13.4,28.3z
			 M12.9,17.3c0.1,0.1,0,0.2,0,0.3c-0.1,0.1-0.1,0.2-0.2,0.4c0,0,0,0,0,0c0,0,0,0,0,0c0,0,0,0,0,0c-0.1,0.1-0.2,0.1-0.3,0.2
			c0-0.1,0-0.2,0-0.2c0.1-0.1,0.2-0.1,0.3,0c0,0,0,0,0,0c0,0,0,0,0,0C12.6,17.6,12.6,17.4,12.9,17.3z M12.6,14.4
			c0,0.2-0.1,0.3-0.2,0.3c0,0,0-0.1-0.1-0.1C12.5,14.5,12.5,14.5,12.6,14.4z M12.6,36.1c0.4,0.1,0.6,0.3,0.6,0.6
			c0,0.3-0.1,0.3-0.4,0.3c-0.3,0-0.5-0.2-0.7-0.3c-0.1-0.1-0.3-0.2-0.4-0.3c-0.2-0.1-0.2-0.2,0-0.3C12,36,12.3,35.9,12.6,36.1z
			 M11.9,27c-0.1,0.3-0.2,0.6-0.2,0.9c0,0-0.1,0.1-0.1,0.1c-0.1,0.2-0.3,0.4-0.4,0.6c0,0-0.1,0-0.1,0C11,28.4,11,28.2,11,28
			c0-0.1,0-0.2,0-0.2c0.1-0.1,0.1-0.3,0.2-0.4c0,0,0.1-0.1,0.1-0.1C11.5,27.2,11.7,27.1,11.9,27C11.9,26.9,11.9,27,11.9,27z
			 M11.8,25.1L11.8,25.1L11.8,25.1L11.8,25.1z M11.8,19.8c0,0.4-0.2,1.2-0.4,1.6C11.2,20.7,11.4,19.9,11.8,19.8z M11.4,16.3
			c0.2,0.3,0.2,0.4-0.1,0.7c0,0.1,0,0.2,0,0.3c0,0.2-0.1,0.2-0.2,0.3c-0.1,0-0.2-0.1-0.2-0.3c0,0,0,0,0,0
			C11,16.9,11.2,16.5,11.4,16.3z M10.9,14.6C10.9,14.6,10.9,14.6,10.9,14.6c0-0.1,0-0.1,0-0.2C11,14.5,10.9,14.5,10.9,14.6
			C10.9,14.6,10.9,14.6,10.9,14.6L10.9,14.6C10.9,14.6,10.9,14.6,10.9,14.6C10.9,14.6,10.9,14.6,10.9,14.6z M10.8,18.6
			c0,0,0-0.1,0-0.1C10.9,18.5,10.9,18.5,10.8,18.6C10.9,18.5,10.8,18.5,10.8,18.6C10.8,18.6,10.8,18.6,10.8,18.6L10.8,18.6
			C10.8,18.6,10.8,18.6,10.8,18.6z M10.7,19.2C10.7,19.2,10.7,19.1,10.7,19.2L10.7,19.2C10.7,19.2,10.7,19.2,10.7,19.2
			c-0.1,0.1-0.1,0.2-0.2,0.3C10.5,19.2,10.5,19.2,10.7,19.2z M10.4,22.2c0.1-0.2,0.1-0.4,0.2-0.5c0,0,0.1-0.1,0.2,0
			c0,0,0.1,0.1,0.1,0.2c-0.1,0.3-0.2,0.5-0.2,0.8C10.3,22.5,10.3,22.5,10.4,22.2z M10,22.9C10,22.9,10,22.9,10,22.9
			C10,22.9,10,22.9,10,22.9c0-0.1,0-0.2,0.1-0.3c0,0,0.1-0.1,0.1-0.1c0,0,0.1,0,0.1,0.1c0,0.1,0,0.1,0,0.2
			C10.2,22.8,10.1,22.8,10,22.9C10,22.9,10,22.9,10,22.9C10,22.9,10,22.9,10,22.9c0,0.1,0,0.2,0,0.2c0,0.1-0.1,0.2-0.2,0.1
			C9.8,23,9.9,23,10,22.9z M9.8,30.1c0.1,0.1,0.3,0.1,0.4,0c0.1-0.1,0.2-0.1,0.4-0.2c0.2-0.1,0.4,0,0.5,0.1c0.1,0.1,0.2,0.3,0.3,0.4
			c0.1,0.1,0,0.2-0.1,0.3c0,0,0,0,0,0c-0.1,0.1-0.1,0.1-0.2,0.1c0,0,0,0,0,0c-0.1,0-0.2,0-0.3,0c-0.1-0.1-0.3-0.2-0.4-0.3
			c-0.1,0-0.1-0.1-0.2-0.1c0,0.1-0.1,0.1-0.1,0.1c-0.1,0.2-0.2,0.2-0.5,0.1c-0.3-0.2-0.5-0.1-0.6,0.2c-0.1,0.2-0.1,0.4,0,0.6
			c0.4,0.5,0.4,1,0.3,1.6c-0.1,0.4-0.1,0.8,0,1.2c0,0.1,0,0.2,0,0.2c-0.2,0.2-0.2,0.4-0.2,0.6c0,0,0,0.1-0.1,0.2
			C9,35.1,9,35,8.9,34.9c0-0.3,0-0.5,0-0.8c0,0,0-0.1,0-0.1c-0.2-0.3,0-0.6,0-0.9C9,33,9,32.8,9,32.7c-0.1-0.3,0-0.6,0-0.9
			c0-0.1,0-0.2,0-0.3c-0.1-0.4-0.2-0.7-0.3-1.1c0-0.1,0-0.3,0.1-0.4c0.2-0.2,0.2-0.4-0.1-0.6c-0.2-0.2-0.3-0.3-0.3-0.6
			c0,0,0-0.1,0-0.1c0.1-0.4,0-0.8-0.3-1.2c-0.1,0-0.1,0-0.2,0c0,0.2-0.1,0.4-0.1,0.6c0-0.1-0.1-0.2-0.1-0.2
			c-0.1,0.1-0.2,0.1-0.3,0.1c-0.1-0.2-0.2-0.3-0.3-0.5c-0.1-0.2-0.1-0.4-0.1-0.6c0.1-0.2,0.1-0.4,0.2-0.5c0-0.1,0-0.1,0.1-0.2
			c0,0,0,0-0.1-0.1C7,26.1,6.9,25.8,7,25.5c0-0.1,0.1-0.1,0.2-0.2c0.1,0.1,0.2,0.1,0.2,0.2c0,0.2,0.1,0.4,0.2,0.5
			c0,0,0.1-0.1,0.1-0.1c0.1,0,0.1-0.2,0.2-0.4c0-0.1,0-0.3,0.1-0.4c0.2,0,0.4,0.1,0.6,0.1c0,0.4-0.4,0.6-0.4,1c0,0,0.1,0.1,0.1,0.1
			c0.3,0.1,0.3,0.1,0.1,0.5c0,0.1,0,0.2-0.1,0.3c0,0.1,0,0.1,0,0.2c0.1,0.3,0.3,0.5,0.4,0.8c0.1,0.1,0.1,0.3,0.1,0.4
			c0,0.3,0.1,0.5,0.2,0.7c0,0.1,0.1,0.1,0.1,0.2C9.2,29.8,9.5,29.9,9.8,30.1z M9.1,23.9c0,0.1,0.1,0.1,0.1,0.1c0,0,0,0.1-0.1,0.1
			c0,0-0.1,0-0.1-0.1C9.1,24,9.1,24,9.1,23.9z"/>
		<path class="st1" d="M12.6,8.1c0,0.1,0,0.1,0,0.2C12.6,8.2,12.6,8.1,12.6,8.1L12.6,8.1z"/>
	</g>
	<linearGradient id="SVGID_1_" gradientUnits="userSpaceOnUse" x1="72.1602" y1="83.3718" x2="42.2605" y2="43.1619">
		<stop  offset="1.329787e-02" style="stop-color:#FFFFFF"/>
		<stop  offset="0.2606" style="stop-color:#DADADA"/>
		<stop  offset="0.4814" style="stop-color:#C6C6C6"/>
		<stop  offset="0.5452" style="stop-color:#EDEDED"/>
		<stop  offset="1" style="stop-color:#FFFFFF"/>
	</linearGradient>
	<path class="st2" d="M65.2,75.1h24.4L75.5,7.8H47.3L6.5,66.9v8.2h18.9l7.6-12h30.3L65.2,75.1z M40.8,50.8l16.4-26l4.1,26H40.8z"/>
	<linearGradient id="SVGID_2_" gradientUnits="userSpaceOnUse" x1="111.9402" y1="17.0032" x2="137.7158" y2="47.4184">
		<stop  offset="1.329787e-02" style="stop-color:#FFFFFF"/>
		<stop  offset="0.2606" style="stop-color:#DADADA"/>
		<stop  offset="0.4814" style="stop-color:#C6C6C6"/>
		<stop  offset="0.5452" style="stop-color:#EDEDED"/>
		<stop  offset="1" style="stop-color:#FFFFFF"/>
	</linearGradient>
	<path class="st3" d="M166.1,22.8l3.1-15H81.9l3.1,15h16.4V75H125v-0.4c0.2,0.2,0.3,0.4,0.5,0.5c3.9,3.9,12.9,8.9,20.8,13.8
		c5.1,3.1,2,8.3-3.5,8.8c-4.6,0.4-10.4-0.5-15.3-3v17.5c4.3,1.2,11,2.6,19.2,2.6c10,0,17.2-4.3,19.3-5.8V79.6
		c-1.4-1.2-5.2-4.3-12.3-8.2c-5.9-3.2-9-6-8.2-10.4c0.8-4.2,6.8-4.5,13.5-1.1c3.4,1.7,5.9,3.9,7,4.9V47c-2.2-1.5-9.7-6-19.2-6
		c-9.1,0-17.1,4.7-21.8,9.6V22.8H166.1z"/>
</g>
</svg>
